<?xml version="1.0" encoding="UTF-8"?>
<svg version="1.1" xmlns="http://www.w3.org/2000/svg" width="1024" height="1024">
<path d="M0 0 C337.92 0 675.84 0 1024 0 C1024 337.92 1024 675.84 1024 1024 C686.08 1024 348.16 1024 0 1024 C0 686.08 0 348.16 0 0 Z " fill="#FDFDFD" transform="translate(0,0)"/>
<path d="M0 0 C16.83 0 33.66 0 51 0 C49.87617066 8.99063476 49.87617066 8.99063476 48.51171875 13.46875 C48.21974609 14.44328125 47.92777344 15.4178125 47.62695312 16.421875 C47.31693359 17.43765625 47.00691406 18.4534375 46.6875 19.5 C44.65298425 26.30637995 42.6615676 33.09252245 41 40 C39.08237697 47.93729186 36.78516531 55.7512382 34.4609375 63.578125 C30.72618679 76.18290863 29.9212567 84.3495943 33.28125 97.16796875 C39.52462656 121.76822965 33.66568992 149.85330844 21.01953125 171.5 C16.27920271 178.91799916 10.62579032 185.91145698 4.015625 191.75390625 C-3.75786916 198.64706881 -4.81995173 208.18978278 -7 218 C-24.16 218 -41.32 218 -59 218 C-60.18776342 214.43670974 -61.3220707 210.98286077 -62.296875 207.375 C-62.52995361 206.51608154 -62.76303223 205.65716309 -63.00317383 204.7722168 C-63.37285278 203.39996948 -63.37285278 203.39996948 -63.75 202 C-64.29032242 200.00649899 -64.83068813 198.01300971 -65.37109375 196.01953125 C-65.64421387 195.00971191 -65.91733398 193.99989258 -66.19873047 192.95947266 C-67.39698333 188.53375019 -68.6047117 184.1106279 -69.8125 179.6875 C-71.41166183 173.82946674 -73.00843831 167.97080217 -74.59922791 162.11048889 C-75.56518021 158.55256156 -76.5322757 154.99494575 -77.5 151.4375 C-77.69417511 150.72369171 -77.88835022 150.00988342 -78.08840942 149.27444458 C-80.64428412 139.88665597 -83.25732499 130.51776297 -85.95947266 121.17089844 C-88.45891072 112.48752113 -90.74042001 103.74837386 -93 95 C-95.10065139 100.3771699 -96.82194491 105.69165651 -98.234375 111.28515625 C-98.64402014 112.87225997 -99.05377358 114.45933575 -99.46362305 116.04638672 C-99.7784816 117.27515533 -99.7784816 117.27515533 -100.09970093 118.52874756 C-103.7868837 132.89507339 -107.7240231 147.13380726 -112.16015625 161.28857422 C-116.12291855 174.08230623 -119.89629289 186.94098176 -122.98046875 199.9765625 C-124.51235697 206.02194512 -126.28671489 212.00350213 -128 218 C-145.16 218 -162.32 218 -180 218 C-181.98 210.41 -183.96 202.82 -186 195 C-187.18497681 190.84321376 -188.37870335 186.69971027 -189.625 182.5625 C-191.59400412 175.92477311 -193.49808927 169.29276391 -195.125 162.5625 C-196.43376193 157.1540693 -197.89968893 151.82694745 -199.5 146.5 C-201.31063259 140.47116035 -202.93002623 134.43505342 -204.40356445 128.31396484 C-205.35845554 124.40537307 -206.40946561 120.53944356 -207.546875 116.6796875 C-207.81765869 115.75897461 -208.08844238 114.83826172 -208.36743164 113.88964844 C-208.89784464 112.10149816 -209.43560802 110.31550469 -209.98217773 108.53222656 C-211.71228147 102.69559603 -212.60250551 97.0733272 -213 91 C-209.81484616 89.70249501 -206.62647921 88.41307127 -203.4375 87.125 C-202.09461914 86.57779297 -202.09461914 86.57779297 -200.72460938 86.01953125 C-198.15928775 84.98588518 -195.58508741 83.9830687 -193 83 C-192.31566895 82.7328418 -191.63133789 82.46568359 -190.92626953 82.19042969 C-189.09765625 81.5546875 -189.09765625 81.5546875 -186 81 C-184.046875 82.33203125 -184.046875 82.33203125 -182 84 C-179.35097425 84.36917274 -176.90440473 84.59968888 -174.25 84.6875 C-173.55261719 84.72166016 -172.85523438 84.75582031 -172.13671875 84.79101562 C-170.42502892 84.87308295 -168.7125424 84.93822919 -167 85 C-165.5393546 88.43701814 -164.5036774 91.75690301 -163.703125 95.40234375 C-163.46948242 96.44737061 -163.23583984 97.49239746 -162.99511719 98.5690918 C-162.74922852 99.6806665 -162.50333984 100.79224121 -162.25 101.9375 C-158.97980119 116.43246277 -155.09639319 130.72059168 -151 145 C-148.42648246 136.57278477 -145.95322208 128.15748554 -144 119.5625 C-142.50184625 112.97001604 -140.78241306 106.46944193 -138.93017578 99.96801758 C-137.77144897 95.8707418 -136.68115971 91.76673874 -135.67578125 87.62890625 C-135.45784912 86.73212158 -135.23991699 85.83533691 -135.01538086 84.91137695 C-134.59963701 83.1835753 -134.18993488 81.45430454 -133.78735352 79.72338867 C-132.379981 73.87513295 -130.47816999 69.06047937 -126.9375 64.125 C-125.25290861 61.40791711 -124.57427094 59.81484396 -123.87890625 56.8046875 C-123.58886719 55.54914063 -123.29882812 54.29359375 -123 53 C-121.29457031 53.06960938 -121.29457031 53.06960938 -119.5546875 53.140625 C-105.83321209 53.53497178 -94.82305651 51.07858406 -82.4375 45.0625 C-81.77024902 44.73894531 -81.10299805 44.41539062 -80.41552734 44.08203125 C-76.20944009 41.92495369 -73.30457553 39.43604147 -70 36 C-69.34 36 -68.68 36 -68 36 C-63.39698668 52.09929624 -58.88169256 68.21008411 -54.75 84.4375 C-52.0509417 95.03331781 -49.17412232 105.53800115 -46 116 C-43.18751304 125.62936986 -40.55417557 135.29956725 -38 145 C-36.57432138 142.33694696 -35.61597532 139.90009569 -34.96484375 136.953125 C-34.79533203 136.19 -34.62582031 135.426875 -34.45117188 134.640625 C-34.28166016 133.85171875 -34.11214844 133.0628125 -33.9375 132.25 C-33.76412109 131.4765625 -33.59074219 130.703125 -33.41210938 129.90625 C-31.41114694 120.76775491 -30.77794606 111.83157059 -30.4375 102.5 C-30.37272461 100.83710938 -30.37272461 100.83710938 -30.30664062 99.140625 C-30.20137786 96.42718494 -30.09924154 93.71366583 -30 91 C-30.75152344 91.4846875 -31.50304687 91.969375 -32.27734375 92.46875 C-35.82361579 94.46321003 -37.99030597 94.58322822 -42 94 C-45.81453905 90.28584356 -46.9348803 87.36751362 -47.1875 82.0625 C-47.14086789 78.88568777 -46.92644487 76.63618772 -45 74 C-42 72 -42 72 -39.0625 72.25 C-36.38437168 72.90586816 -34.4122622 73.72874303 -32 75 C-32.78041924 71.87207969 -33.57623011 68.74828003 -34.375 65.625 C-34.59671875 64.73554688 -34.8184375 63.84609375 -35.046875 62.9296875 C-35.37558594 61.65351563 -35.37558594 61.65351563 -35.7109375 60.3515625 C-36.00943604 59.17327881 -36.00943604 59.17327881 -36.31396484 57.97119141 C-36.90897313 55.80076246 -36.90897313 55.80076246 -39 54 C-39.804375 54.99 -39.804375 54.99 -40.625 56 C-43 58 -43 58 -45.9375 58.5625 C-50.64026277 57.69872725 -52.65586821 54.92018827 -55.3125 51.125 C-56.35003909 47.91806099 -56.35818601 45.34306941 -56 42 C-54.4375 39.5625 -54.4375 39.5625 -52 38 C-49.66750029 37.9376337 -47.33234116 37.93196204 -45 38 C-50.07054888 29.95896609 -55.42275171 22.88175053 -62 16 C-56.65825688 10.57970183 -56.65825688 10.57970183 -53 9 C-37.48319469 9.51722684 -22.06321169 18.90959608 -10 28 C-9.01 28.66 -8.02 29.32 -7 30 C-6.01 25.545 -6.01 25.545 -5 21 C-2.525 10.605 -2.525 10.605 0 0 Z " fill="#2F5D90" transform="translate(634,397)"/>
<path d="M0 0 C0.81726563 0.00539795 1.63453125 0.0107959 2.4765625 0.01635742 C9.70249088 0.1960115 15.85747309 1.962673 22.625 4.4375 C24.62073696 4.95425332 26.62068717 5.45507896 28.625 5.9375 C32.75048058 7.03802908 35.59061358 8.30196737 38.625 11.4375 C40.39430712 14.97611424 39.49296263 18.68235614 38.625 22.4375 C37.30015236 25.39080619 35.57756885 27.86482399 33.625 30.4375 C33.16480469 31.08460938 32.70460938 31.73171875 32.23046875 32.3984375 C22.97421769 44.25581228 6.63801616 50.89474456 -6.2265625 58.0078125 C-12.33143556 61.39069269 -18.36096242 64.89612358 -24.375 68.4375 C-24.21708984 69.21311279 -24.05917969 69.98872559 -23.89648438 70.7878418 C-22.89882422 75.85694559 -22.15849894 80.73361708 -24.33984375 85.58203125 C-31.35279899 95.01324691 -47.14015337 100.62656228 -58.375 102.4375 C-63.41638196 103.01054917 -66.99082251 103.30261093 -71.375 100.5625 C-72.365 99.510625 -72.365 99.510625 -73.375 98.4375 C-74.035 97.7775 -74.695 97.1175 -75.375 96.4375 C-78.345 97.4275 -78.345 97.4275 -81.375 98.4375 C-81.045 99.4275 -80.715 100.4175 -80.375 101.4375 C-79.8707858 106.23993358 -79.84238604 110.2333293 -81.8125 114.6875 C-92.72831563 126.40203384 -110.14899679 132.20266899 -125.8125 132.9375 C-131.33565349 133.12186117 -133.4835897 131.05954905 -137.375 127.4375 C-137.95354736 127.71948242 -138.53209473 128.00146484 -139.12817383 128.29199219 C-141.81193663 129.59609104 -144.49966861 130.89180877 -147.1875 132.1875 C-148.09693359 132.6309375 -149.00636719 133.074375 -149.94335938 133.53125 C-161.69233158 139.17739919 -173.0734636 142.45274704 -185.875 144.625 C-186.62357269 144.75446014 -187.37214539 144.88392029 -188.1434021 145.01730347 C-196.9549199 146.5325505 -205.75325553 147.95800617 -214.6875 148.5 C-215.78578125 148.57480591 -215.78578125 148.57480591 -216.90625 148.65112305 C-221.29607891 148.80661384 -223.93494651 148.17888514 -227.375 145.4375 C-229.6875 142.75 -229.6875 142.75 -231.375 140.4375 C-241.03918932 141.92522877 -250.35550165 143.77123302 -259.66381836 146.8112793 C-263.7005686 148.09621393 -267.140102 148.68118775 -271.375 148.4375 C-272.035 147.1175 -272.695 145.7975 -273.375 144.4375 C-265.58257645 137.20669256 -258.66225661 132.67767783 -248.375 129.4375 C-247.24707031 129.04691406 -246.11914062 128.65632812 -244.95703125 128.25390625 C-236.80017301 125.4375 -236.80017301 125.4375 -234.375 125.4375 C-234.74109375 125.02242188 -235.1071875 124.60734375 -235.484375 124.1796875 C-240.44361666 118.53559818 -245.34221434 112.84055066 -250.21875 107.125 C-252.32855961 104.65305889 -254.45479659 102.19675403 -256.59375 99.75 C-257.60424085 98.58339758 -258.61466033 97.41673335 -259.625 96.25 C-260.34187988 95.43946167 -260.34187988 95.43946167 -261.07324219 94.61254883 C-264.375 90.77661115 -264.375 90.77661115 -264.375 87.4375 C-262.00785833 86.08828948 -259.63289725 84.75835691 -257.25 83.4375 C-256.58484375 83.0559375 -255.9196875 82.674375 -255.234375 82.28125 C-254.57695312 81.9203125 -253.91953125 81.559375 -253.2421875 81.1875 C-252.34669189 80.68476563 -252.34669189 80.68476563 -251.43310547 80.171875 C-247.20382819 78.66278057 -244.10469968 79.14581944 -239.97851562 80.79516602 C-238.73986978 81.41496063 -237.50769394 82.04780377 -236.28125 82.69140625 C-235.61266968 83.02994125 -234.94408936 83.36847626 -234.25524902 83.7172699 C-232.1225631 84.80031032 -229.99880117 85.89965629 -227.875 87 C-226.47973684 87.71270587 -225.08390734 88.42430417 -223.6875 89.13476562 C-222.65689453 89.66026505 -222.65689453 89.66026505 -221.60546875 90.19638062 C-220.22424941 90.90058544 -218.84273943 91.60422051 -217.4609375 92.30728149 C-214.10695466 94.019094 -210.77361865 95.75701126 -207.46875 97.56201172 C-206.53548889 98.05930031 -206.53548889 98.05930031 -205.58337402 98.56663513 C-203.89620411 99.46606195 -202.21823635 100.38269096 -200.54101562 101.30053711 C-195.80609725 103.00091611 -192.28773183 102.29741741 -187.75805664 100.26098633 C-186.94199951 99.76880615 -186.12594238 99.27662598 -185.28515625 98.76953125 C-183.88064209 97.9353064 -183.88064209 97.9353064 -182.44775391 97.08422852 C-181.45437012 96.47893311 -180.46098633 95.8736377 -179.4375 95.25 C-177.28011419 93.96326285 -175.1225574 92.67681233 -172.96484375 91.390625 C-171.86769043 90.73126953 -170.77053711 90.07191406 -169.64013672 89.39257812 C-164.61827165 86.3856172 -159.55945362 83.44311658 -154.5 80.5 C-153.02696411 79.64027588 -153.02696411 79.64027588 -151.52416992 78.76318359 C-144.11489774 74.44015617 -136.68459338 70.15429337 -129.25 65.875 C-120.43730323 60.80027476 -111.65718028 55.67511781 -102.90917969 50.48974609 C-92.20592666 44.14586688 -81.46982142 37.858331 -70.73036194 31.57601929 C-66.79088562 29.27025676 -62.85865026 26.95255838 -58.9296875 24.62890625 C-49.3974847 19.0032444 -39.82266897 13.47239257 -30.0625 8.25 C-28.83660156 7.58121826 -28.83660156 7.58121826 -27.5859375 6.89892578 C-18.77966214 2.2705867 -9.96136844 -0.12935476 0 0 Z " fill="#F9FAFA" transform="translate(584.375,342.5625)"/>
<path d="M0 0 C0.8971875 0.5878125 0.8971875 0.5878125 1.8125 1.1875 C4.85463267 2.70856634 8.09297572 2.56179338 11.4375 2.75 C12.14390625 2.79318359 12.8503125 2.83636719 13.578125 2.88085938 C15.32268537 2.98694751 17.06756697 3.08772889 18.8125 3.1875 C20.2731454 6.62451814 21.3088226 9.94440301 22.109375 13.58984375 C22.34301758 14.63487061 22.57666016 15.67989746 22.81738281 16.7565918 C23.06327148 17.8681665 23.30916016 18.97974121 23.5625 20.125 C26.83269881 34.61996277 30.71610681 48.90809168 34.8125 63.1875 C35.13863281 62.06472656 35.46476562 60.94195313 35.80078125 59.78515625 C40.89868849 42.29099737 40.89868849 42.29099737 42.8125 37.1875 C43.4725 36.8575 44.1325 36.5275 44.8125 36.1875 C44.8125 37.8375 44.8125 39.4875 44.8125 41.1875 C45.81603516 41.07921875 45.81603516 41.07921875 46.83984375 40.96875 C55.84743682 40.09821752 64.77506141 40.09112921 73.8125 40.1875 C73.79155273 39.51170898 73.77060547 38.83591797 73.74902344 38.13964844 C73.66578357 35.07241746 73.61381534 32.00542418 73.5625 28.9375 C73.52898437 27.87402344 73.49546875 26.81054688 73.4609375 25.71484375 C73.44160156 24.17763672 73.44160156 24.17763672 73.421875 22.609375 C73.3904541 21.19543457 73.3904541 21.19543457 73.35839844 19.75292969 C73.94958303 16.41305458 75.15642333 15.23091312 77.8125 13.1875 C81.46146672 13.1875 83.51822613 14.02117129 86.6875 15.8125 C88.8125 18.1875 88.8125 18.1875 89.05297852 21.37890625 C88.80516225 25.30371204 88.10664501 28.70381056 87.08984375 32.5 C86.81877052 33.52349045 86.81877052 33.52349045 86.54222107 34.56765747 C85.95396306 36.77684273 85.35257827 38.98218162 84.75 41.1875 C84.33581909 42.72632409 83.92192175 44.26522453 83.50830078 45.80419922 C80.46060773 57.08021796 77.14327984 68.26010031 73.66845703 79.41162109 C69.71509456 92.23242295 65.92158255 105.10576195 62.83203125 118.1640625 C61.30014303 124.20944512 59.52578511 130.19100213 57.8125 136.1875 C40.6525 136.1875 23.4925 136.1875 5.8125 136.1875 C3.8325 128.5975 1.8525 121.0075 -0.1875 113.1875 C-1.37247681 109.03071376 -2.56620335 104.88721027 -3.8125 100.75 C-5.78150412 94.11227311 -7.68558927 87.48026391 -9.3125 80.75 C-10.62126193 75.3415693 -12.08718893 70.01444745 -13.6875 64.6875 C-15.49813259 58.65866035 -17.11752623 52.62255342 -18.59106445 46.50146484 C-19.54595554 42.59287307 -20.59696561 38.72694356 -21.734375 34.8671875 C-22.00515869 33.94647461 -22.27594238 33.02576172 -22.55493164 32.07714844 C-23.08534464 30.28899816 -23.62310802 28.50300469 -24.16967773 26.71972656 C-25.89978147 20.88309603 -26.79000551 15.2608272 -27.1875 9.1875 C-20.52083333 6.52083333 -13.85416667 3.85416667 -7.1875 1.1875 C-5.86721802 0.60718018 -5.86721802 0.60718018 -4.52026367 0.01513672 C-2.1875 -0.8125 -2.1875 -0.8125 0 0 Z " fill="#2F5D94" transform="translate(448.1875,478.8125)"/>
<path d="M0 0 C16.83 0 33.66 0 51 0 C49.87617066 8.99063476 49.87617066 8.99063476 48.51171875 13.46875 C48.21974609 14.44328125 47.92777344 15.4178125 47.62695312 16.421875 C47.31693359 17.43765625 47.00691406 18.4534375 46.6875 19.5 C44.65298425 26.30637995 42.6615676 33.09252245 41 40 C39.08237697 47.93729186 36.78516531 55.7512382 34.4609375 63.578125 C30.72618679 76.18290863 29.9212567 84.3495943 33.28125 97.16796875 C37.22840692 112.7206251 35.49349147 129.50802888 32 145 C31.67 145 31.34 145 31 145 C30.90221827 140.2086952 31.27843446 135.73278814 32 131 C31.82871582 131.67579102 31.65743164 132.35158203 31.48095703 133.04785156 C30.70036479 136.11645929 29.91276171 139.18322533 29.125 142.25 C28.85558594 143.31347656 28.58617187 144.37695312 28.30859375 145.47265625 C28.04433594 146.49746094 27.78007813 147.52226563 27.5078125 148.578125 C27.14647217 149.99206543 27.14647217 149.99206543 26.77783203 151.43457031 C26.06040472 153.8007744 25.18090748 155.83426025 24 158 C21.69 158 19.38 158 17 158 C17.01160156 158.78246094 17.02320313 159.56492187 17.03515625 160.37109375 C17.04417969 161.38300781 17.05320312 162.39492188 17.0625 163.4375 C17.07410156 164.44683594 17.08570313 165.45617187 17.09765625 166.49609375 C17 169 17 169 16 170 C12.5625 170.25 12.5625 170.25 9 170 C7 167 7 167 7.1875 164.5625 C8.04966143 161.84337551 9.24283159 160.21556017 11 158 C11 157.34 11 156.68 11 156 C8.69 155.34 6.38 154.68 4 154 C4.33 152.824375 4.66 151.64875 5 150.4375 C5.9969533 146.4988324 6.16869203 143.04860871 6 139 C5.278125 139.33 4.55625 139.66 3.8125 140 C0.94141078 141.02083172 -0.98478721 141.32596895 -4 141 C-6.68125591 138.31874409 -6.29880654 136.85875084 -6.3125 133.125 C-6.32925781 132.07570313 -6.34601562 131.02640625 -6.36328125 129.9453125 C-5.96460275 126.71301586 -5.16968109 125.37004742 -3 123 C1.17762205 123.46418023 3.17682961 123.90795624 6 127 C6.99 127 7.98 127 9 127 C9 119.41 9 111.82 9 104 C4.38 104 -0.24 104 -5 104 C-4.67 105.051875 -4.34 106.10375 -4 107.1875 C-2.54597049 112.73098751 -2.54597049 112.73098751 -3 116 C-4.0625 117.8125 -4.0625 117.8125 -6 119 C-10.08227509 119.52918381 -12.33368878 119.3470371 -16 117.4375 C-18 115 -18 115 -17.9375 111.375 C-17 108 -17 108 -15 106 C-15 105.01 -15 104.02 -15 103 C-17.43387753 101.78306124 -19.41838846 101.68040104 -22.125 101.4375 C-23.73375 101.293125 -25.3425 101.14875 -27 101 C-27.33 97.37 -27.66 93.74 -28 90 C-29.32 89.67 -30.64 89.34 -32 89 C-33.485 89.99 -33.485 89.99 -35 91 C-38.5625 91.3125 -38.5625 91.3125 -42 91 C-44.07324138 87.89013793 -44.27392186 87.10891613 -44.25 83.5625 C-44.25515625 82.80066406 -44.2603125 82.03882813 -44.265625 81.25390625 C-43.9747292 78.78556982 -43.22975656 77.142314 -42 75 C-37.51311093 75.5278693 -34.26272499 76.29491 -30 78 C-30.33 72.72 -30.66 67.44 -31 62 C-18.625 61.505 -18.625 61.505 -6 61 C-14.91 60.67 -23.82 60.34 -33 60 C-33.99 57.36 -34.98 54.72 -36 52 C-36.99 51.34 -37.98 50.68 -39 50 C-38.67 50.99 -38.34 51.98 -38 53 C-42.08860759 57.81012658 -42.08860759 57.81012658 -46 58.625 C-50.63188061 57.66002487 -52.67887179 54.88732602 -55.3125 51.125 C-56.35003909 47.91806099 -56.35818601 45.34306941 -56 42 C-54.4375 39.5625 -54.4375 39.5625 -52 38 C-49.66750029 37.9376337 -47.33234116 37.93196204 -45 38 C-50.07054888 29.95896609 -55.42275171 22.88175053 -62 16 C-56.65825688 10.57970183 -56.65825688 10.57970183 -53 9 C-37.48319469 9.51722684 -22.06321169 18.90959608 -10 28 C-9.01 28.66 -8.02 29.32 -7 30 C-6.34 27.03 -5.68 24.06 -5 21 C-3.35 14.07 -1.7 7.14 0 0 Z " fill="#325E93" transform="translate(634,397)"/>
<path d="M0 0 C0.81726563 0.00539795 1.63453125 0.0107959 2.4765625 0.01635742 C9.70249088 0.1960115 15.85747309 1.962673 22.625 4.4375 C24.62073696 4.95425332 26.62068717 5.45507896 28.625 5.9375 C32.75048058 7.03802908 35.59061358 8.30196737 38.625 11.4375 C40.39430712 14.97611424 39.49296263 18.68235614 38.625 22.4375 C37.30015236 25.39080619 35.57756885 27.86482399 33.625 30.4375 C33.16480469 31.08460938 32.70460938 31.73171875 32.23046875 32.3984375 C22.97421769 44.25581228 6.63801616 50.89474456 -6.2265625 58.0078125 C-7.22977539 58.57016602 -8.23298828 59.13251953 -9.26660156 59.71191406 C-11.43677398 60.91665634 -13.6225014 62.09361429 -15.81933594 63.24902344 C-16.91793945 63.84489258 -18.01654297 64.44076172 -19.1484375 65.0546875 C-20.15052246 65.58433105 -21.15260742 66.11397461 -22.18505859 66.65966797 C-24.67215191 68.25763577 -24.67215191 68.25763577 -24.70166016 71.14892578 C-24.5938623 71.90415527 -24.48606445 72.65938477 -24.375 73.4375 C-25.035 73.4375 -25.695 73.4375 -26.375 73.4375 C-28.355 69.4775 -28.355 69.4775 -30.375 65.4375 C-27.72165087 63.38166791 -25.04872728 61.59481451 -22.12890625 59.94140625 C-21.30165039 59.47114014 -20.47439453 59.00087402 -19.62207031 58.51635742 C-18.73616211 58.01595947 -17.85025391 57.51556152 -16.9375 57 C-16.01678711 56.47575439 -15.09607422 55.95150879 -14.14746094 55.41137695 C-9.32089849 52.66439634 -4.48400889 49.93678582 0.36328125 47.2265625 C1.28761963 46.70634521 2.21195801 46.18612793 3.16430664 45.65014648 C4.91652213 44.66427869 6.67201775 43.68420831 8.43139648 42.71118164 C15.87564441 38.51275293 23.10664059 33.74437824 28.625 27.125 C29.181875 26.46886719 29.73875 25.81273437 30.3125 25.13671875 C33.0379636 21.60821676 32.70611796 18.81786964 32.625 14.4375 C27.83693431 11.61376895 23.21229093 9.81565865 17.625 10.4375 C15.18197673 11.65043963 13.14011371 13.09793598 10.95703125 14.73046875 C8.51470637 16.5182342 6.05289823 17.96662389 3.375 19.375 C2.58609375 19.79652344 1.7971875 20.21804688 0.984375 20.65234375 C-1.85414659 21.5969511 -3.53405555 21.24847882 -6.375 20.4375 C-6.375 17.7975 -6.375 15.1575 -6.375 12.4375 C-2.085 10.4575 2.205 8.4775 6.625 6.4375 C-15.67571712 5.53646092 -32.53981392 15.92506873 -51.04980469 27.04394531 C-55.22978472 29.54912444 -59.42869427 32.02230091 -63.625 34.5 C-64.53330566 35.03713623 -65.44161133 35.57427246 -66.37744141 36.12768555 C-74.82291474 41.11976716 -83.28689029 46.08004545 -91.75296021 51.03707886 C-99.70184973 55.69147951 -107.63921799 60.36459898 -115.5625 65.0625 C-124.43917644 70.32302554 -133.37277655 75.48075485 -142.31933594 80.62133789 C-151.64154824 85.98873513 -160.8976417 91.46292605 -170.12963867 96.98364258 C-172.2117928 98.22500365 -174.29848705 99.45878829 -176.39013672 100.68408203 C-178.36802453 101.84596574 -180.33358322 103.02911679 -182.28564453 104.23388672 C-188.04873318 107.65331265 -192.63895918 109.92411442 -199.375 108.4375 C-203.08237418 107.15266541 -206.51166078 105.4754323 -210 103.6875 C-210.98403809 103.20249023 -211.96807617 102.71748047 -212.98193359 102.21777344 C-218.30924532 99.57142775 -223.57102381 96.81203285 -228.8125 94 C-229.84938965 93.44666992 -230.8862793 92.89333984 -231.95458984 92.32324219 C-233.95250565 91.25012724 -235.94279237 90.1626595 -237.92431641 89.05957031 C-238.82843262 88.57069336 -239.73254883 88.08181641 -240.6640625 87.578125 C-241.85056396 86.92118652 -241.85056396 86.92118652 -243.06103516 86.25097656 C-245.9355008 85.24045541 -247.48966524 85.55125201 -250.375 86.4375 C-253.12072728 87.91737963 -253.12072728 87.91737963 -255.375 89.4375 C-253.69753102 93.4693114 -250.90685291 96.5067107 -248.0625 99.75 C-247.28084473 100.65129639 -247.28084473 100.65129639 -246.48339844 101.57080078 C-245.36942678 102.85454887 -244.25364564 104.1367286 -243.13623047 105.41748047 C-241.31645793 107.50464404 -239.50313998 109.59726224 -237.69140625 111.69140625 C-234.58949494 115.2765362 -231.48331668 118.85792241 -228.375 122.4375 C-220.39168075 120.1803044 -212.5874838 117.45600391 -204.77359009 114.68173218 C-200.7536705 113.25535435 -196.73027425 111.8388463 -192.70703125 110.421875 C-191.83247787 110.11376389 -190.9579245 109.80565277 -190.05686951 109.48820496 C-178.95887425 105.58183885 -167.84775 101.71325162 -156.73260498 97.85598755 C-154.36814124 97.03496097 -152.00408666 96.21275512 -149.64044189 95.38937378 C-146.30950156 94.2292477 -142.97720934 93.07309172 -139.64453125 91.91796875 C-138.6347673 91.56547058 -137.62500336 91.21297241 -136.5846405 90.84979248 C-135.66185806 90.53093079 -134.73907562 90.21206909 -133.78833008 89.88354492 C-132.98059647 89.60298752 -132.17286285 89.32243011 -131.34065247 89.03337097 C-129.375 88.4375 -129.375 88.4375 -127.375 88.4375 C-127.375 86.4575 -127.375 84.4775 -127.375 82.4375 C-125.5 81.8125 -125.5 81.8125 -123.375 81.4375 C-121.375 83.4375 -121.375 83.4375 -121.375 86.4375 C-119.395 85.4475 -117.415 84.4575 -115.375 83.4375 C-115.705 83.1075 -116.035 82.7775 -116.375 82.4375 C-116.41580783 80.43791636 -116.41754356 78.43704746 -116.375 76.4375 C-114.725 76.7675 -113.075 77.0975 -111.375 77.4375 C-111.045 79.0875 -110.715 80.7375 -110.375 82.4375 C-105.66613132 80.87003023 -100.95863405 79.29860921 -96.25390625 77.71875 C-94.48177489 77.1249879 -92.70963943 76.53123801 -90.9375 75.9375 C-90.06029297 75.64230469 -89.18308594 75.34710938 -88.27929688 75.04296875 C-85.6482481 74.16272104 -83.01248794 73.29824147 -80.375 72.4375 C-79.46862793 72.13328125 -78.56225586 71.8290625 -77.62841797 71.515625 C-76.74943848 71.23203125 -75.87045898 70.9484375 -74.96484375 70.65625 C-74.17843506 70.39779297 -73.39202637 70.13933594 -72.58178711 69.87304688 C-70.15388472 69.39385915 -68.69868999 69.65598249 -66.375 70.4375 C-66.375 72.0875 -66.375 73.7375 -66.375 75.4375 C-77.80776796 78.98416159 -77.80776796 78.98416159 -83.390625 80.6171875 C-106.63317183 87.44015986 -129.65745966 95.06113991 -152.5625 102.9375 C-153.71806396 103.33420898 -154.87362793 103.73091797 -156.06420898 104.13964844 C-160.7967324 105.78116461 -165.49029378 107.45632611 -170.12109375 109.3671875 C-176.60422778 112.00443869 -183.26854619 114.11738949 -189.91558838 116.29656982 C-203.32026304 120.69469941 -216.6491664 125.25544996 -229.91845703 130.046875 C-239.02197561 133.330244 -248.17271725 136.44310641 -257.375 139.4375 C-249.4358799 137.71889999 -241.55363894 135.78703404 -233.66796875 133.83984375 C-232.23053293 133.48565324 -230.79307828 133.13153914 -229.35560608 132.77749634 C-225.54206255 131.83792231 -221.72885576 130.89698856 -217.91572571 129.95573807 C-215.55950513 129.37426092 -213.20317349 128.79323609 -210.84680176 128.21237183 C-191.71061323 123.4951077 -172.57576647 118.77268599 -153.46557617 113.95092773 C-152.22396729 113.63841064 -150.9823584 113.32589355 -149.703125 113.00390625 C-148.60242676 112.72482422 -147.50172852 112.44574219 -146.36767578 112.15820312 C-143.65251173 111.50433102 -140.9380876 110.96321054 -138.1953125 110.44140625 C-134.33841374 109.42788582 -133.19377539 108.99537644 -131 105.8125 C-123.61080255 96.40961825 -111.21308774 88.62973847 -99.375 86.4375 C-93.04143551 86.4375 -90.19434459 87.82539855 -85.625 92.16015625 C-85.00625 92.79244141 -85.00625 92.79244141 -84.375 93.4375 C-80.79649274 92.07761093 -77.48207932 90.48879161 -74.12890625 88.64453125 C-73.13246094 88.09949951 -72.13601563 87.55446777 -71.109375 86.99291992 C-70.06265625 86.41775635 -69.0159375 85.84259277 -67.9375 85.25 C-59.16714217 80.46081862 -50.36947731 75.79222053 -41.375 71.4375 C-41.17413557 75.15349191 -41.2230563 76.20958445 -43.375 79.4375 C-45.87987623 80.8216975 -48.35625123 82.08980321 -50.9375 83.3125 C-52.38746508 84.01669451 -53.83668872 84.72241777 -55.28515625 85.4296875 C-55.98656738 85.7709668 -56.68797852 86.11224609 -57.41064453 86.46386719 C-61.14344913 88.31403183 -64.76862606 90.35381728 -68.375 92.4375 C-68.045 93.4275 -67.715 94.4175 -67.375 95.4375 C-59.53310488 96.26781831 -53.15991281 94.29786025 -45.890625 91.62890625 C-42.69109071 90.54461963 -39.71551088 89.88324302 -36.375 89.4375 C-36.045 87.7875 -35.715 86.1375 -35.375 84.4375 C-34.055 85.0975 -32.735 85.7575 -31.375 86.4375 C-29.395 84.9525 -29.395 84.9525 -27.375 83.4375 C-26.715 83.7675 -26.055 84.0975 -25.375 84.4375 C-27.84053233 90.71340049 -33.67043881 93.3358451 -39.5 96 C-40.16088623 96.30301025 -40.82177246 96.60602051 -41.50268555 96.91821289 C-49.9440394 100.693882 -58.99186378 104.01264742 -68.375 102.4375 C-71.375 100.5625 -71.375 100.5625 -73.375 98.4375 C-74.035 97.7775 -74.695 97.1175 -75.375 96.4375 C-78.345 97.4275 -78.345 97.4275 -81.375 98.4375 C-81.045 99.4275 -80.715 100.4175 -80.375 101.4375 C-79.8707858 106.23993358 -79.84238604 110.2333293 -81.8125 114.6875 C-92.72831563 126.40203384 -110.14899679 132.20266899 -125.8125 132.9375 C-131.33565349 133.12186117 -133.4835897 131.05954905 -137.375 127.4375 C-137.95354736 127.71948242 -138.53209473 128.00146484 -139.12817383 128.29199219 C-141.81193663 129.59609104 -144.49966861 130.89180877 -147.1875 132.1875 C-148.09693359 132.6309375 -149.00636719 133.074375 -149.94335938 133.53125 C-161.69233158 139.17739919 -173.0734636 142.45274704 -185.875 144.625 C-186.62357269 144.75446014 -187.37214539 144.88392029 -188.1434021 145.01730347 C-196.9549199 146.5325505 -205.75325553 147.95800617 -214.6875 148.5 C-215.78578125 148.57480591 -215.78578125 148.57480591 -216.90625 148.65112305 C-221.29607891 148.80661384 -223.93494651 148.17888514 -227.375 145.4375 C-229.6875 142.75 -229.6875 142.75 -231.375 140.4375 C-241.03918932 141.92522877 -250.35550165 143.77123302 -259.66381836 146.8112793 C-263.7005686 148.09621393 -267.140102 148.68118775 -271.375 148.4375 C-272.035 147.1175 -272.695 145.7975 -273.375 144.4375 C-265.58257645 137.20669256 -258.66225661 132.67767783 -248.375 129.4375 C-247.24707031 129.04691406 -246.11914062 128.65632812 -244.95703125 128.25390625 C-236.80017301 125.4375 -236.80017301 125.4375 -234.375 125.4375 C-234.74109375 125.02242188 -235.1071875 124.60734375 -235.484375 124.1796875 C-240.44361666 118.53559818 -245.34221434 112.84055066 -250.21875 107.125 C-252.32855961 104.65305889 -254.45479659 102.19675403 -256.59375 99.75 C-257.60424085 98.58339758 -258.61466033 97.41673335 -259.625 96.25 C-260.34187988 95.43946167 -260.34187988 95.43946167 -261.07324219 94.61254883 C-264.375 90.77661115 -264.375 90.77661115 -264.375 87.4375 C-262.00785833 86.08828948 -259.63289725 84.75835691 -257.25 83.4375 C-256.58484375 83.0559375 -255.9196875 82.674375 -255.234375 82.28125 C-254.57695312 81.9203125 -253.91953125 81.559375 -253.2421875 81.1875 C-252.34669189 80.68476563 -252.34669189 80.68476563 -251.43310547 80.171875 C-247.20382819 78.66278057 -244.10469968 79.14581944 -239.97851562 80.79516602 C-238.73986978 81.41496063 -237.50769394 82.04780377 -236.28125 82.69140625 C-235.61266968 83.02994125 -234.94408936 83.36847626 -234.25524902 83.7172699 C-232.1225631 84.80031032 -229.99880117 85.89965629 -227.875 87 C-226.47973684 87.71270587 -225.08390734 88.42430417 -223.6875 89.13476562 C-222.65689453 89.66026505 -222.65689453 89.66026505 -221.60546875 90.19638062 C-220.22424941 90.90058544 -218.84273943 91.60422051 -217.4609375 92.30728149 C-214.10695466 94.019094 -210.77361865 95.75701126 -207.46875 97.56201172 C-206.53548889 98.05930031 -206.53548889 98.05930031 -205.58337402 98.56663513 C-203.89620411 99.46606195 -202.21823635 100.38269096 -200.54101562 101.30053711 C-195.80609725 103.00091611 -192.28773183 102.29741741 -187.75805664 100.26098633 C-186.94199951 99.76880615 -186.12594238 99.27662598 -185.28515625 98.76953125 C-183.88064209 97.9353064 -183.88064209 97.9353064 -182.44775391 97.08422852 C-181.45437012 96.47893311 -180.46098633 95.8736377 -179.4375 95.25 C-177.28011419 93.96326285 -175.1225574 92.67681233 -172.96484375 91.390625 C-171.86769043 90.73126953 -170.77053711 90.07191406 -169.64013672 89.39257812 C-164.61827165 86.3856172 -159.55945362 83.44311658 -154.5 80.5 C-153.02696411 79.64027588 -153.02696411 79.64027588 -151.52416992 78.76318359 C-144.11489774 74.44015617 -136.68459338 70.15429337 -129.25 65.875 C-120.43730323 60.80027476 -111.65718028 55.67511781 -102.90917969 50.48974609 C-92.20592666 44.14586688 -81.46982142 37.858331 -70.73036194 31.57601929 C-66.79088562 29.27025676 -62.85865026 26.95255838 -58.9296875 24.62890625 C-49.3974847 19.0032444 -39.82266897 13.47239257 -30.0625 8.25 C-28.83660156 7.58121826 -28.83660156 7.58121826 -27.5859375 6.89892578 C-18.77966214 2.2705867 -9.96136844 -0.12935476 0 0 Z " fill="#3B659A" transform="translate(584.375,342.5625)"/>
<path d="M0 0 C2.45103548 0.98041419 3.76758786 1.6513818 5.25 3.875 C6 6 6 6 6 10 C6.80219971 9.98952637 7.60439941 9.97905273 8.4309082 9.96826172 C12.05807372 9.92674233 15.68518928 9.90068657 19.3125 9.875 C20.57513672 9.85824219 21.83777344 9.84148437 23.13867188 9.82421875 C24.95141602 9.81455078 24.95141602 9.81455078 26.80078125 9.8046875 C27.91622314 9.79421387 29.03166504 9.78374023 30.1809082 9.77294922 C33 10 33 10 36 12 C26.76 12 17.52 12 8 12 C8.495 14.475 8.495 14.475 9 17 C9.06533435 18.93651019 9.08584303 20.87502861 9.0625 22.8125 C9.05347656 23.78832031 9.04445313 24.76414062 9.03515625 25.76953125 C9.02355469 26.50558594 9.01195312 27.24164063 9 28 C8.25363281 27.84660156 7.50726562 27.69320313 6.73828125 27.53515625 C3.50613852 26.90348214 0.26217958 26.44775014 -3 26 C-3.93742541 28.81227622 -4.13470844 30.58746844 -4.125 33.5 C-4.12757813 34.2734375 -4.13015625 35.046875 -4.1328125 35.84375 C-4.08145813 38.18447017 -4.08145813 38.18447017 -3 41 C2.3086849 40.41825155 2.3086849 40.41825155 7 38 C10.51724138 38.51724138 10.51724138 38.51724138 12 40 C12.07226502 41.85287502 12.0838122 43.70833878 12.0625 45.5625 C12.05347656 46.57441406 12.04445313 47.58632813 12.03515625 48.62890625 C12.02355469 49.41136719 12.01195312 50.19382812 12 51 C12.68707031 50.97679687 13.37414062 50.95359375 14.08203125 50.9296875 C14.98308594 50.91164063 15.88414062 50.89359375 16.8125 50.875 C17.70582031 50.85179687 18.59914063 50.82859375 19.51953125 50.8046875 C22 51 22 51 25 53 C24.38722388 55.96175123 23.74627478 57.38058783 22 60 C21.5 62.5 21.5 62.5 22 65 C24.42409618 67.81195157 25.89937132 67.99132511 29.625 68.3125 C33.06994771 68.35598629 33.06994771 68.35598629 35 66 C34.68281126 62.63779938 34.09195063 59.42297289 33.375 56.125 C33.25125 55.42375 33.1275 54.7225 33 54 C34 53 34 53 36.3984375 52.8671875 C37.38070312 52.86976563 38.36296875 52.87234375 39.375 52.875 C40.84066406 52.87113281 40.84066406 52.87113281 42.3359375 52.8671875 C45 53 45 53 48 54 C49.08372641 56.82832791 49.11795047 59.54333024 49.09765625 62.546875 C49.09282227 63.81337891 49.09282227 63.81337891 49.08789062 65.10546875 C49.07532227 66.41451172 49.07532227 66.41451172 49.0625 67.75 C49.05798828 68.63816406 49.05347656 69.52632812 49.04882812 70.44140625 C49.037074 72.62767329 49.02064249 74.81380179 49 77 C47.15625 77.62109375 47.15625 77.62109375 45 78 C43.31295807 76.69254251 41.64639965 75.35827971 40 74 C38.68 74 37.36 74 36 74 C33.66631406 77.50052891 33.75778021 78.99614337 33.8125 83.125 C33.82216797 84.73761719 33.82216797 84.73761719 33.83203125 86.3828125 C33.70602303 88.92614526 33.70602303 88.92614526 35 90 C38.84597567 90.32049797 41.50971852 89.59555725 45 88 C46 89 46 89 46.25 92.0625 C45.95768258 96.66649932 44.7813072 99.76939541 43 104 C45.31 104.33 47.62 104.66 50 105 C50 109 50 109 48.4375 111.4375 C46.71517462 113.92463383 46.71517462 113.92463383 47.3125 116.8125 C47.539375 117.534375 47.76625 118.25625 48 119 C50.31 119 52.62 119 55 119 C55.33 115.37 55.66 111.74 56 108 C59.465 107.505 59.465 107.505 63 107 C63.79554315 104.35527449 64.5874215 101.7096006 65.375 99.0625 C65.60614502 98.28648437 65.83729004 97.51046875 66.07543945 96.7109375 C67.26712934 92.66148114 68.35896728 88.64266362 69.1875 84.5 C69.455625 83.345 69.72375 82.19 70 81 C70.66 80.67 71.32 80.34 72 80 C70.92787354 103.93522317 61.7444548 122.86403816 45 140 C44.01773438 140.86818359 44.01773438 140.86818359 43.015625 141.75390625 C35.24213084 148.64706881 34.18004827 158.18978278 32 168 C14.84 168 -2.32 168 -20 168 C-21.2405815 164.27825549 -22.41246372 160.65358507 -23.4375 156.8828125 C-23.69273437 155.94566406 -23.94796875 155.00851562 -24.2109375 154.04296875 C-24.47132813 153.08003906 -24.73171875 152.11710938 -25 151.125 C-25.26039063 150.16980469 -25.52078125 149.21460938 -25.7890625 148.23046875 C-26.29754382 146.35833297 -26.80158356 144.48498414 -27.30078125 142.61035156 C-27.74346337 140.95771287 -28.19776653 139.30810629 -28.66796875 137.66308594 C-29.67562895 134.01285379 -30.11141379 131.61308714 -29 128 C-27 130 -27 130 -26 137 C-20.06 137.66 -14.12 138.32 -8 139 C-7.35417969 136.62941406 -7.35417969 136.62941406 -6.6953125 134.2109375 C-5.6113876 130.23569705 -4.52290072 126.26175807 -3.4296875 122.2890625 C-3.17316406 121.35449219 -2.91664063 120.41992188 -2.65234375 119.45703125 C-2.12758464 117.54522041 -1.60151122 115.63376992 -1.07421875 113.72265625 C-0.69330078 112.33240234 -0.69330078 112.33240234 -0.3046875 110.9140625 C0.0358667 109.6758374 0.0358667 109.6758374 0.38330078 108.41259766 C1.00960421 105.96242722 1.50403198 103.47984009 2 101 C-2.29 100.67 -6.58 100.34 -11 100 C-11 99.67 -11 99.34 -11 99 C-8.98177083 98.83723958 -6.96354167 98.67447917 -4.9453125 98.51171875 C-2.60480784 98.12606964 -2.60480784 98.12606964 -1 95 C-0.01 95 0.98 95 2 95 C2.81911146 91.50151403 3.62907028 88.00096838 4.4375 84.5 C4.66759766 83.51773438 4.89769531 82.53546875 5.13476562 81.5234375 C7.37341274 71.79018918 8.1990684 62.46160064 8.5625 52.5 C8.62727539 50.83710938 8.62727539 50.83710938 8.69335938 49.140625 C8.79862214 46.42718494 8.90075846 43.71366583 9 41 C8.24847656 41.4846875 7.49695313 41.969375 6.72265625 42.46875 C3.17638421 44.46321003 1.00969403 44.58322822 -3 44 C-6.81453905 40.28584356 -7.9348803 37.36751362 -8.1875 32.0625 C-8.14086789 28.88568777 -7.92644487 26.63618772 -6 24 C-3 22 -3 22 -0.0625 22.25 C2.61562832 22.90586816 4.5877378 23.72874303 7 25 C6.21166078 21.9574611 5.41872788 18.91613717 4.625 15.875 C4.40328125 15.0190625 4.1815625 14.163125 3.953125 13.28125 C2.7799084 8.79542181 1.53622605 4.37896212 0 0 Z " fill="#2D5684" transform="translate(595,447)"/>
<path d="M0 0 C0.8041566 2.25163848 1.0798307 3.6558559 0.53515625 6.00390625 C-1.83204841 9.08187465 -5.1180011 10.34652909 -8.5625 11.9375 C-10.01244951 12.63259228 -11.46167308 13.32920096 -12.91015625 14.02734375 C-13.61156738 14.36233887 -14.31297852 14.69733398 -15.03564453 15.04248047 C-18.77893304 16.86713589 -22.3955674 18.91743894 -26 21 C-25.67 21.99 -25.34 22.98 -25 24 C-17.15810488 24.83031831 -10.78491281 22.86036025 -3.515625 20.19140625 C-0.31609071 19.10711963 2.65948912 18.44574302 6 18 C6.33 16.35 6.66 14.7 7 13 C8.98 13.99 8.98 13.99 11 15 C12.32 14.01 13.64 13.02 15 12 C15.99 12.495 15.99 12.495 17 13 C14.53446767 19.27590049 8.70456119 21.8983451 2.875 24.5625 C2.21411377 24.86551025 1.55322754 25.16852051 0.87231445 25.48071289 C-7.5690394 29.256382 -16.61686378 32.57514742 -26 31 C-29 29.125 -29 29.125 -31 27 C-31.99 26.01 -31.99 26.01 -33 25 C-34.98 25.66 -36.96 26.32 -39 27 C-38.67 27.99 -38.34 28.98 -38 30 C-37.4957858 34.80243358 -37.46738604 38.7958293 -39.4375 43.25 C-50.35331563 54.96453384 -67.77399679 60.76516899 -83.4375 61.5 C-87.31535074 61.41291484 -89.6242065 61.06921612 -92.625 58.5625 C-93.40875 57.716875 -94.1925 56.87125 -95 56 C-95.66 55.67 -96.32 55.34 -97 55 C-97 54.01 -97 53.02 -97 52 C-102.65978354 54.2169659 -108.25095155 56.54619251 -113.8125 59 C-132.9487213 67.16314692 -157.96877838 73.34894133 -179 72 C-181.375 70 -181.375 70 -183 68 C-182.649375 67.05125 -182.29875 66.1025 -181.9375 65.125 C-180.64973223 62.12939828 -180.64973223 62.12939828 -182 60 C-174.97936213 58.2383965 -167.95822431 56.47879574 -160.93676758 54.72045898 C-158.55807667 54.12454444 -156.17949233 53.52820433 -153.80102539 52.93139648 C-142.00461056 49.97171359 -130.20636009 47.02106827 -118.37890625 44.1875 C-117.5611824 43.99045975 -116.74345856 43.79341949 -115.9009552 43.59040833 C-111.20415586 42.47374796 -106.49829253 41.48532362 -101.75193787 40.60206604 C-95.0751381 39.30067662 -90.69449565 37.90999778 -86.65234375 32.15234375 C-80.18934572 23.73363947 -67.36349486 16.91916572 -57 15 C-50.66643551 15 -47.81934459 16.38789855 -43.25 20.72265625 C-42.63125 21.35494141 -42.63125 21.35494141 -42 22 C-38.41455942 20.63609647 -35.08446665 19.04504887 -31.71875 17.20703125 C-30.71714844 16.66199951 -29.71554687 16.11696777 -28.68359375 15.55541992 C-27.63300781 14.98025635 -26.58242188 14.40509277 -25.5 13.8125 C-23.34380825 12.6379139 -21.18755867 11.46343394 -19.03125 10.2890625 C-17.99484375 9.72348633 -16.9584375 9.15791016 -15.890625 8.57519531 C-12.26689528 6.60050746 -8.63547656 4.6404551 -5 2.6875 C-4.01 2.15511719 -3.02 1.62273437 -2 1.07421875 C-1.34 0.71972656 -0.68 0.36523438 0 0 Z " fill="#3B6599" transform="translate(542,414)"/>
<path d="M0 0 C3.500053 -0.02715558 6.99989187 -0.04691428 10.5 -0.0625 C11.48226562 -0.07087891 12.46453125 -0.07925781 13.4765625 -0.08789062 C19.08674757 -0.10659124 24.45150899 0.161121 30 1 C30.83739781 3.1234016 31.66980283 5.2487728 32.5 7.375 C32.9640625 8.55835938 33.428125 9.74171875 33.90625 10.9609375 C35 14 35 14 35 16 C38.93075644 15.42547254 38.93075644 15.42547254 42 13 C44.4375 12.625 44.4375 12.625 47 13 C50.11815399 16.22951664 50.9679138 19.08554325 51.125 23.5625 C51 27 51 27 50 29 C46.28400809 29.20086443 45.22791555 29.1519437 42 27 C39.37468476 26.83286431 39.37468476 26.83286431 37 27 C37.144375 27.66386719 37.28875 28.32773437 37.4375 29.01171875 C37.623125 29.89472656 37.80875 30.77773438 38 31.6875 C38.185625 32.55761719 38.37125 33.42773438 38.5625 34.32421875 C39 37 39 37 39 42 C34.71 42 30.42 42 26 42 C26.33 43.051875 26.66 44.10375 27 45.1875 C28.45402951 50.73098751 28.45402951 50.73098751 28 54 C26.9375 55.8125 26.9375 55.8125 25 57 C20.91772491 57.52918381 18.66631122 57.3470371 15 55.4375 C13 53 13 53 13.0625 49.375 C14 46 14 46 16 44 C16 43.01 16 42.02 16 41 C13.56612247 39.78306124 11.58161154 39.68040104 8.875 39.4375 C7.26625 39.293125 5.6575 39.14875 4 39 C3.67 35.37 3.34 31.74 3 28 C1.68 27.67 0.36 27.34 -1 27 C-1.99 27.66 -2.98 28.32 -4 29 C-7.5625 29.3125 -7.5625 29.3125 -11 29 C-13.07324138 25.89013793 -13.27392186 25.10891613 -13.25 21.5625 C-13.25515625 20.80066406 -13.2603125 20.03882813 -13.265625 19.25390625 C-12.9747292 16.78556982 -12.22975656 15.142314 -11 13 C-6.51311093 13.5278693 -3.26272499 14.29491 1 16 C0.67 10.72 0.34 5.44 0 0 Z " fill="#3B73AE" transform="translate(603,459)"/>
<path d="M0 0 C-0.165 1.11375 -0.33 2.2275 -0.5 3.375 C-1.12094505 8.25510338 -1.09057874 13.08861948 -1 18 C0.85067737 18.68590097 0.85067737 18.68590097 3 19 C5.0065438 17.67653494 7.00628175 16.34270821 9 15 C12.00599937 14.51065127 13.26716692 14.4765478 15.75 16.25 C18.17909165 19.65072831 18.11608736 23.17736101 18.0625 27.25 C18.05347656 28.14203125 18.04445313 29.0340625 18.03515625 29.953125 C18.02355469 30.62859375 18.01195312 31.3040625 18 32 C17.34 32 16.68 32 16 32 C15.67 33.32 15.34 34.64 15 36 C14.67 34.35 14.34 32.7 14 31 C13.01 33.64 12.02 36.28 11 39 C10.67 38.01 10.34 37.02 10 36 C8.16715557 34.87483915 8.16715557 34.87483915 6 34 C5.360625 33.608125 4.72125 33.21625 4.0625 32.8125 C1.34027449 31.74010813 -0.25153748 32.10860675 -3 33 C-4.25838557 35.51677113 -4.20818973 37.41293288 -4.31640625 40.2265625 C-4.35830078 41.2578125 -4.40019531 42.2890625 -4.44335938 43.3515625 C-4.48267578 44.43179688 -4.52199219 45.51203125 -4.5625 46.625 C-4.60568359 47.71296875 -4.64886719 48.8009375 -4.69335938 49.921875 C-4.7996453 52.6144517 -4.90168057 55.30712253 -5 58 C-14.67846426 58.64217298 -24.29381339 59.16831537 -34 59 C-36.33088748 55.70933532 -36.04450336 53.0318546 -35.43164062 49.15039062 C-34.72401806 45.62508545 -33.76738872 42.19688648 -32.75 38.75 C-29.9214661 28.89257506 -27.44295001 18.9589196 -25 9 C-24.67 10.32 -24.34 11.64 -24 13 C-21.99308266 11.26675321 -21.02618358 10.06807731 -20.0625 7.5625 C-18.78864797 4.49026863 -17.65639807 3.01024718 -15 1 C-10.0034468 -0.15305074 -5.09831892 -0.08944419 0 0 Z " fill="#386AA0" transform="translate(527,461)"/>
<path d="M0 0 C2.125 1.125 2.125 1.125 4.125 3.125 C4.65720493 7.91484436 3.58720963 10.12390935 1.125 14.125 C1.125 15.775 1.125 17.425 1.125 19.125 C7.065 19.455 13.005 19.785 19.125 20.125 C18.60977671 27.82511788 17.03137503 34.60035963 14.6875 41.9375 C14.37490234 42.94748047 14.06230469 43.95746094 13.74023438 44.99804688 C12.35053388 49.44920174 10.8977125 53.80960897 9.125 58.125 C2.69188704 58.22007063 -3.53258005 58.27816726 -9.875 57.125 C-10.205 54.485 -10.535 51.845 -10.875 49.125 C-11.865 48.795 -12.855 48.465 -13.875 48.125 C-14.8581543 45.67236328 -14.8581543 45.67236328 -15.69921875 42.4453125 C-16.00537109 41.28902344 -16.31152344 40.13273438 -16.62695312 38.94140625 C-16.93568359 37.72324219 -17.24441406 36.50507812 -17.5625 35.25 C-17.88283203 34.03957031 -18.20316406 32.82914063 -18.53320312 31.58203125 C-20.875 22.60431103 -20.875 22.60431103 -20.875 19.125 C-18.235 18.465 -15.595 17.805 -12.875 17.125 C-13.30531279 14.54312326 -13.67708329 12.46585656 -15 10.1875 C-16.2854621 7.15748219 -15.80136906 5.23495326 -14.875 2.125 C-11.09081559 -2.41602129 -5.14395257 -1.56555078 0 0 Z " fill="#3D6FA3" transform="translate(577.875,527.875)"/>
<path d="M0 0 C4.33358342 0.30909176 8.66681422 0.62288661 13 0.9375 C14.83111328 1.06801758 14.83111328 1.06801758 16.69921875 1.20117188 C22.82767368 1.64838345 28.91297653 2.15542549 35 3 C34.56798503 6.54252271 33.88060304 9.27222506 32.4375 12.5625 C31.0962454 15.76984795 30.69076075 17.59836823 31 21 C31.53625 20.67 32.0725 20.34 32.625 20 C35.5391061 18.77300796 37.86867708 18.85766714 41 19 C41.3725461 25.20910162 40.19930532 28.90097886 36.625 33.9375 C35 35 35 35 32.5 34.9375 C29.55297262 33.83236473 28.62116347 32.64505618 27 30 C22.89911064 31.50607883 21.46490446 33.96188878 19.25 37.625 C18.63640625 38.62789062 18.0228125 39.63078125 17.390625 40.6640625 C16.93171875 41.43492187 16.4728125 42.20578125 16 43 C10.13391708 42.30710259 4.32260413 41.42848067 -1.5 40.4375 C-2.73363281 40.22963867 -2.73363281 40.22963867 -3.9921875 40.01757812 C-5.99504541 39.67988697 -7.99755959 39.34015815 -10 39 C-9.37324658 34.77416253 -8.43256839 30.80366561 -7.1875 26.71875 C-6.83429687 25.54699219 -6.48109375 24.37523437 -6.1171875 23.16796875 C-5.37239583 20.72265625 -4.62760417 18.27734375 -3.8828125 15.83203125 C-3.52960937 14.66027344 -3.17640625 13.48851562 -2.8125 12.28125 C-2.48894531 11.21970703 -2.16539062 10.15816406 -1.83203125 9.06445312 C-1.01438399 6.05297765 -0.45752688 3.08484034 0 0 Z " fill="#3B71A8" transform="translate(600,548)"/>
<path d="M0 0 C0.33 0 0.66 0 1 0 C1.3542772 13.70416878 1.02191845 26.59923069 -2 40 C-2.33 40 -2.66 40 -3 40 C-3.09778173 35.2086952 -2.72156554 30.73278814 -2 26 C-2.17128418 26.67579102 -2.34256836 27.35158203 -2.51904297 28.04785156 C-3.29963521 31.11645929 -4.08723829 34.18322533 -4.875 37.25 C-5.14441406 38.31347656 -5.41382813 39.37695312 -5.69140625 40.47265625 C-5.95566406 41.49746094 -6.21992187 42.52226563 -6.4921875 43.578125 C-6.73308105 44.52075195 -6.97397461 45.46337891 -7.22216797 46.43457031 C-7.93959528 48.8007744 -8.81909252 50.83426025 -10 53 C-12.31 53 -14.62 53 -17 53 C-16.98839844 53.78246094 -16.97679687 54.56492187 -16.96484375 55.37109375 C-16.95582031 56.38300781 -16.94679688 57.39492188 -16.9375 58.4375 C-16.92589844 59.44683594 -16.91429687 60.45617187 -16.90234375 61.49609375 C-17 64 -17 64 -18 65 C-21.4375 65.25 -21.4375 65.25 -25 65 C-27 62 -27 62 -26.8125 59.5625 C-25.95033857 56.84337551 -24.75716841 55.21556017 -23 53 C-23 52.34 -23 51.68 -23 51 C-25.31 50.34 -27.62 49.68 -30 49 C-29.67 47.824375 -29.34 46.64875 -29 45.4375 C-28.0030467 41.4988324 -27.83130797 38.04860871 -28 34 C-28.721875 34.33 -29.44375 34.66 -30.1875 35 C-33.05858922 36.02083172 -34.98478721 36.32596895 -38 36 C-40.68125591 33.31874409 -40.29880654 31.85875084 -40.3125 28.125 C-40.32925781 27.07570313 -40.34601562 26.02640625 -40.36328125 24.9453125 C-39.96460275 21.71301586 -39.16968109 20.37004742 -37 18 C-32.82237795 18.46418023 -30.82317039 18.90795624 -28 22 C-27.01 22 -26.02 22 -25 22 C-24.67 15.4 -24.34 8.8 -24 2 C-16.3902814 2.55953813 -9.35616427 3.99032626 -2 6 C-1.505 9.96 -1.505 9.96 -1 14 C-0.67 9.38 -0.34 4.76 0 0 Z " fill="#3E74AD" transform="translate(668,502)"/>
<path d="M0 0 C0.8041566 2.25163848 1.0798307 3.6558559 0.53515625 6.00390625 C-1.83204841 9.08187465 -5.1180011 10.34652909 -8.5625 11.9375 C-10.01244951 12.63259228 -11.46167308 13.32920096 -12.91015625 14.02734375 C-13.61156738 14.36233887 -14.31297852 14.69733398 -15.03564453 15.04248047 C-18.77893304 16.86713589 -22.3955674 18.91743894 -26 21 C-25.505 22.485 -25.505 22.485 -25 24 C-17.15810488 24.83031831 -10.78491281 22.86036025 -3.515625 20.19140625 C-0.31609071 19.10711963 2.65948912 18.44574302 6 18 C6.33 16.35 6.66 14.7 7 13 C8.32 13.66 9.64 14.32 11 15 C12.32 14.01 13.64 13.02 15 12 C15.99 12.495 15.99 12.495 17 13 C14.53446767 19.27590049 8.70456119 21.8983451 2.875 24.5625 C2.21411377 24.86551025 1.55322754 25.16852051 0.87231445 25.48071289 C-7.5690394 29.256382 -16.61686378 32.57514742 -26 31 C-29 29.125 -29 29.125 -31 27 C-31.66 26.34 -32.32 25.68 -33 25 C-34.98 25.66 -36.96 26.32 -39 27 C-38.505 28.485 -38.505 28.485 -38 30 C-37.4957858 34.80243358 -37.46738604 38.7958293 -39.4375 43.25 C-49.62153103 54.17920403 -65.75695251 60.06416252 -80.37890625 61.28125 C-88.38249173 61.51240048 -88.38249173 61.51240048 -90.8359375 59.4765625 C-91.22007812 58.98929687 -91.60421875 58.50203125 -92 58 C-91.67 57.01 -91.34 56.02 -91 55 C-88 55 -88 55 -86.08203125 55.17578125 C-77.49047742 55.69334473 -69.99638709 52.75693473 -62 50 C-60.16709054 49.39454862 -58.33385133 48.79009254 -56.5 48.1875 C-54.7675 47.5996875 -54.7675 47.5996875 -53 47 C-53 46.34 -53 45.68 -53 45 C-53.5775 44.773125 -54.155 44.54625 -54.75 44.3125 C-58.52195093 42.11219529 -60.46312818 39.181118 -62.25 35.25 C-63.20502264 31.11156854 -63.1690242 27.22560499 -63 23 C-61.68 22.34 -60.36 21.68 -59 21 C-58.89042969 21.88042969 -58.78085937 22.76085937 -58.66796875 23.66796875 C-58.50941406 24.82941406 -58.35085938 25.99085938 -58.1875 27.1875 C-58.03667969 28.33605469 -57.88585937 29.48460937 -57.73046875 30.66796875 C-56.65161927 35.58913778 -55.19996466 38.20002356 -51 41 C-47.91634129 41.2502157 -47.91634129 41.2502157 -45 41 C-43.37818691 39.37818691 -43.75167677 37.61105363 -43.6875 35.375 C-43.72538714 30.09353262 -44.92359927 27.25267159 -48 23 C-48.66 22.67 -49.32 22.34 -50 22 C-50 21.01 -50 20.02 -50 19 C-48.25 18.25 -48.25 18.25 -46 18 C-43.75 19.9375 -43.75 19.9375 -42 22 C-38.41455942 20.63609647 -35.08446665 19.04504887 -31.71875 17.20703125 C-30.21634766 16.38948364 -30.21634766 16.38948364 -28.68359375 15.55541992 C-27.10771484 14.69267456 -27.10771484 14.69267456 -25.5 13.8125 C-23.34380825 12.6379139 -21.18755867 11.46343394 -19.03125 10.2890625 C-17.99484375 9.72348633 -16.9584375 9.15791016 -15.890625 8.57519531 C-12.26689528 6.60050746 -8.63547656 4.6404551 -5 2.6875 C-4.01 2.15511719 -3.02 1.62273437 -2 1.07421875 C-1.34 0.71972656 -0.68 0.36523438 0 0 Z " fill="#386498" transform="translate(542,414)"/>
<path d="M0 0 C2.27907373 1.13172107 4.53279463 2.30405371 6.78353882 3.49111938 C7.6183931 3.92413864 8.45324738 4.3571579 9.31340027 4.80329895 C11.97973793 6.18683779 14.64175524 7.578415 17.30307007 8.97158813 C19.94679425 10.35351838 22.59147397 11.73345799 25.23918152 13.10774231 C26.88340438 13.96132379 28.52540992 14.81919621 30.16468811 15.68223572 C35.68316759 18.54931041 41.30553672 20.9446682 47.11557007 23.15908813 C47.11557007 23.81908813 47.11557007 24.47908813 47.11557007 25.15908813 C43.0790096 26.71243322 39.04048377 28.26052123 35.00009155 29.80386353 C33.6271495 30.32913074 32.25474543 30.85580647 30.88290405 31.38394165 C28.90588417 32.1447752 26.92695642 32.90044776 24.94760132 33.65518188 C23.16446533 34.33858643 23.16446533 34.33858643 21.3453064 35.03579712 C16.02578671 36.88590749 16.02578671 36.88590749 13.11557007 37.15908813 C11.05793373 35.45062645 9.55291312 33.93651113 7.86557007 31.90908813 C7.38885864 31.36276733 6.91214722 30.81644653 6.42098999 30.25357056 C2.60423829 25.84678961 -1.07994271 21.32445313 -4.73599243 16.78408813 C-7.99684475 12.79991948 -11.42786464 8.97355392 -14.88442993 5.15908813 C-13.67616129 1.53428222 -12.04246348 0.76886084 -8.86880493 -1.16903687 C-5.62647455 -2.26683376 -3.0796087 -1.37425088 0 0 Z " fill="#FBFBFB" transform="translate(342.8844299316406,428.8409118652344)"/>
<path d="M0 0 C22.05824268 -1.77608598 22.05824268 -1.77608598 28.125 1.88671875 C30.229978 4.82053184 31.57850195 7.67946941 33 11 C33.79370165 12.41823722 34.60750421 13.82534951 35.4375 15.22265625 C42 26.2993608 42 26.2993608 42 29 C32.1 29 22.2 29 12 29 C11.01 26.36 10.02 23.72 9 21 C8.01 20.34 7.02 19.68 6 19 C6.33 19.99 6.66 20.98 7 22 C2.91139241 26.81012658 2.91139241 26.81012658 -1 27.625 C-5.63188061 26.66002487 -7.67887179 23.88732602 -10.3125 20.125 C-11.30302342 17.06338216 -11.12270626 14.19036265 -11 11 C-10.67 12.32 -10.34 13.64 -10 15 C-9.34 15 -8.68 15 -8 15 C-7.67 13.35 -7.34 11.7 -7 10 C-3.37 10.33 0.26 10.66 4 11 C2.78705396 7.27452289 1.47187802 3.63022016 0 0 Z " fill="#3B72AC" transform="translate(589,428)"/>
<path d="M0 0 C7.38728102 -0.02526692 14.77455098 -0.0428316 22.16186523 -0.05493164 C24.67716895 -0.05997363 27.19246972 -0.06680703 29.70776367 -0.07543945 C33.31429775 -0.08751094 36.92079323 -0.09322949 40.52734375 -0.09765625 C42.22575661 -0.10539818 42.22575661 -0.10539818 43.95848083 -0.11329651 C45.51998619 -0.11340981 45.51998619 -0.11340981 47.11303711 -0.11352539 C48.03459091 -0.115746 48.95614471 -0.11796661 49.90562439 -0.12025452 C52 0 52 0 53 1 C53.04092937 3.33297433 53.04241723 5.66705225 53 8 C52.4738208 8.29543701 51.9476416 8.59087402 51.40551758 8.89526367 C48.87189896 10.32143297 46.34169138 11.75349328 43.8125 13.1875 C42.87809082 13.71690186 41.94368164 14.24630371 40.98095703 14.79174805 C33.058463 19.3169019 25.31630837 24.09982534 17.66723633 29.07299805 C16.42043091 29.86637573 16.42043091 29.86637573 15.1484375 30.67578125 C14.41802246 31.14927002 13.68760742 31.62275879 12.93505859 32.1105957 C11 33 11 33 8 32 C7.03271484 29.37963867 7.03271484 29.37963867 6.2109375 25.91796875 C5.90929687 24.67595703 5.60765625 23.43394531 5.296875 22.15429688 C4.98927394 20.83210319 4.68198549 19.50983674 4.375 18.1875 C4.06108627 16.87666747 3.74599589 15.56611612 3.4296875 14.25585938 C2.85013599 11.84147776 2.27588537 9.42581361 1.70849609 7.00854492 C1.15707262 4.6669903 0.58671243 2.33280369 0 0 Z " fill="#376399" transform="translate(395,397)"/>
<path d="M0 0 C0 1.65 0 3.3 0 5 C-22.38896669 17.3072284 -43.78300947 22.76965805 -69 26 C-69.71720215 26.09474609 -70.4344043 26.18949219 -71.17333984 26.28710938 C-73.11222503 26.53194368 -75.05612693 26.73606238 -77 26.9375 C-78.60875 27.10572266 -78.60875 27.10572266 -80.25 27.27734375 C-83 27 -83 27 -85.375 25.12890625 C-87 23 -87 23 -87 21 C-62.62356308 14.3902111 -38.19113613 8.27003292 -13.50317383 2.91552734 C-12.42060303 2.67914551 -11.33803223 2.44276367 -10.22265625 2.19921875 C-9.26109619 1.99127686 -8.29953613 1.78333496 -7.30883789 1.5690918 C-0.94294294 0 -0.94294294 0 0 0 Z " fill="#F5F7F7" transform="translate(446,459)"/>
<path d="M0 0 C3.7628319 1.56032804 7.42431957 3.29453123 11.08203125 5.0859375 C11.77619141 5.42181885 12.47035156 5.7577002 13.18554688 6.10375977 C16.96717423 8.00330169 20.05140946 9.80144434 22.76953125 13.1484375 C22.76953125 13.8084375 22.76953125 14.4684375 22.76953125 15.1484375 C18.7265195 13.66324951 15.15806869 11.71965752 11.45703125 9.5234375 C10.38839844 8.89179688 9.31976562 8.26015625 8.21875 7.609375 C7.00638672 6.88621094 7.00638672 6.88621094 5.76953125 6.1484375 C6.51460937 6.73238281 7.2596875 7.31632812 8.02734375 7.91796875 C10.35019118 9.80735035 12.48369327 11.76924391 14.64453125 13.8359375 C18.37952178 17.15908497 20.81026689 18.04511949 25.76953125 18.1484375 C24.44953125 18.4784375 23.12953125 18.8084375 21.76953125 19.1484375 C22.34960938 19.97085937 22.9296875 20.79328125 23.52734375 21.640625 C37.41617062 41.4345856 37.41617062 41.4345856 37.76953125 48.1484375 C34.29959663 45.02472695 32.15702664 41.58132901 29.95703125 37.5234375 C29.23256677 36.27818244 28.50729925 35.03339423 27.78125 33.7890625 C26.4831317 31.52494419 25.49935406 29.45884239 24.5390625 27.0078125 C23.04047881 23.78009378 21.59530522 22.3022386 18.76953125 20.1484375 C15.99035226 19.49362102 15.99035226 19.49362102 12.9921875 19.5390625 C11.36796875 19.5078833 11.36796875 19.5078833 9.7109375 19.47607422 C4.71785471 19.54606396 -0.25142446 19.77075296 -5.23046875 20.1484375 C-4.73546875 20.8703125 -4.24046875 21.5921875 -3.73046875 22.3359375 C-2.23046875 25.1484375 -2.23046875 25.1484375 -2.23046875 30.1484375 C-5.86046875 30.1484375 -9.49046875 30.1484375 -13.23046875 30.1484375 C-13.56046875 31.4684375 -13.89046875 32.7884375 -14.23046875 34.1484375 C-14.89046875 34.1484375 -15.55046875 34.1484375 -16.23046875 34.1484375 C-16.41796875 31.2734375 -16.41796875 31.2734375 -16.23046875 28.1484375 C-12.58629135 25.7189859 -10.51805603 25.98664175 -6.23046875 26.1484375 C-11.30101763 18.10740359 -16.65322046 11.03018803 -23.23046875 4.1484375 C-15.59454104 -3.59978326 -9.89800723 -3.50157173 0 0 Z " fill="#2D5889" transform="translate(595.23046875,408.8515625)"/>
<path d="M0 0 C0.14695312 0.81791016 0.14695312 0.81791016 0.296875 1.65234375 C1.93287848 9.90287856 3.83249528 17.02256616 11 22 C11 22.66 11 23.32 11 24 C-0.1889377 29.04727263 -10.48879728 33.61530505 -23 33 C-27.02439024 26.7804878 -27.02439024 26.7804878 -26.92578125 23.625 C-25.69907781 20.14675226 -23.61963829 17.81725922 -21.125 15.1875 C-20.63974854 14.66631592 -20.15449707 14.14513184 -19.65454102 13.6081543 C-6.62081813 0 -6.62081813 0 0 0 Z " fill="#F8F9F8" transform="translate(478,437)"/>
<path d="M0 0 C3 5.75 3 5.75 3 8 C3.99 8 4.98 8 6 8 C6.05395478 9.62463842 6.09277195 11.24978541 6.125 12.875 C6.14820313 13.77992188 6.17140625 14.68484375 6.1953125 15.6171875 C6 18 6 18 4 20 C3.01 20 2.02 20 1 20 C-0.68798827 21.43750191 -0.68798827 21.43750191 -2 23 C-4 22 -4 22 -5 21 C-6.15811388 22.05270463 -6.15811388 22.05270463 -7 24 C-10.20500882 25.48051374 -13.59173122 26.50595293 -16.9375 27.625 C-17.85080078 27.94984375 -18.76410156 28.2746875 -19.70507812 28.609375 C-25.96193221 30.71713335 -31.41137019 31.43465102 -38 31 C-38.66 29.68 -39.32 28.36 -40 27 C-34.43119408 23.56820764 -28.79329358 20.27950633 -23.0625 17.125 C-21.98097656 16.52945312 -20.89945313 15.93390625 -19.78515625 15.3203125 C-17 14 -17 14 -14 14 C-13.95746094 13.11248047 -13.95746094 13.11248047 -13.9140625 12.20703125 C-13.58817082 9.50741502 -13.16422026 7.46880751 -12 5 C-8.55745366 2.42690223 -4.39447174 0 0 0 Z " fill="#376598" transform="translate(555,408)"/>
<path d="M0 0 C0.66 0 1.32 0 2 0 C3.00646726 3.43564022 4.0040545 6.87379629 5 10.3125 C5.28617188 11.28896484 5.57234375 12.26542969 5.8671875 13.27148438 C6.13789062 14.20927734 6.40859375 15.14707031 6.6875 16.11328125 C6.93886719 16.97735596 7.19023438 17.84143066 7.44921875 18.73168945 C8 21 8 21 8 24 C-5.2 24 -18.4 24 -32 24 C-32 22.35 -32 20.7 -32 19 C-32.99 18.34 -33.98 17.68 -35 17 C-34.175 16.8040625 -33.35 16.608125 -32.5 16.40625 C-25.42178642 14.57349827 -18.98121331 12.30087719 -12.4375 9.0625 C-11.77169922 8.73894531 -11.10589844 8.41539062 -10.41992188 8.08203125 C-6.2099979 5.92791787 -3.30575633 3.43726924 0 0 Z " fill="#3B72AA" transform="translate(564,433)"/>
<path d="M0 0 C8.71054135 0.57420235 13.38344357 5.89829829 19 12 C32 27.11059766 32 27.11059766 32 32 C26.65369039 32.0963299 22.07697774 31.78351861 17 30 C14.04467258 26.31228777 12.55447644 22.29519311 10.8671875 17.94433594 C9.38122634 14.61263697 7.2701428 11.74767089 5.125 8.8125 C1.08759124 3.26277372 1.08759124 3.26277372 0 0 Z " fill="#3972AD" transform="translate(617,428)"/>
<path d="M0 0 C1.5 2.25 1.5 2.25 3 5 C3.98602514 6.34370093 4.9838154 7.67896002 6 9 C-3.9649377 14.36410476 -12.5716186 17.65652404 -24 17 C-24.66 15.68 -25.32 14.36 -26 13 C-20.43119408 9.56820764 -14.79329358 6.27950633 -9.0625 3.125 C-7.98097656 2.52945312 -6.89945313 1.93390625 -5.78515625 1.3203125 C-3 0 -3 0 0 0 Z " fill="#F6F8F8" transform="translate(541,422)"/>
<path d="M0 0 C5.61 0 11.22 0 17 0 C16.04723825 4.76380874 14.50887255 8.13162519 12.125 12.25 C11.77308594 12.88679687 11.42117188 13.52359375 11.05859375 14.1796875 C8.37039877 18.87653374 8.37039877 18.87653374 5 20 C4.16169027 17.23058394 3.32917966 14.45964931 2.5 11.6875 C2.26152344 10.90181641 2.02304687 10.11613281 1.77734375 9.30664062 C1.55175781 8.54931641 1.32617188 7.79199219 1.09375 7.01171875 C0.88427734 6.31522217 0.67480469 5.61872559 0.45898438 4.90112305 C0 3 0 3 0 0 Z " fill="#36699D" transform="translate(568,589)"/>
<path d="M0 0 C1.32 0.33 2.64 0.66 4 1 C4 5.29 4 9.58 4 14 C6.31 14 8.62 14 11 14 C10.67 14.99 10.34 15.98 10 17 C7.9375 17.6875 7.9375 17.6875 6 18 C5.91959473 18.58378418 5.83918945 19.16756836 5.75634766 19.76904297 C5.38232995 22.47146759 5.00368535 25.17322565 4.625 27.875 C4.49867188 28.7928125 4.37234375 29.710625 4.2421875 30.65625 C3.8499237 33.44132295 3.43345061 36.22104585 3 39 C2.85401367 39.94262695 2.70802734 40.88525391 2.55761719 41.85644531 C2.40196289 42.75202148 2.24630859 43.64759766 2.0859375 44.5703125 C1.94978027 45.37484863 1.81362305 46.17938477 1.67333984 47.00830078 C1 49 1 49 -2 51 C-2.14890475 45.96313509 -1.60558683 41.54597422 -0.5625 36.625 C1.68602161 25.20691038 1.74685497 13.60131505 2 2 C1.34 2 0.68 2 0 2 C0 1.34 0 0.68 0 0 Z " fill="#29527C" transform="translate(602,485)"/>
<path d="M0 0 C6.27 0.33 12.54 0.66 19 1 C18.67 3.31 18.34 5.62 18 8 C11.4 8.66 4.8 9.32 -2 10 C-1.34 6.7 -0.68 3.4 0 0 Z " fill="#376596" transform="translate(511,450)"/>
<path d="M0 0 C3.34517064 0.53218624 4.70939129 1.84150837 6.74609375 4.50390625 C8.53889244 7.95696209 8.65624636 11.60212398 8.75 15.4375 C6.77 16.4275 6.77 16.4275 4.75 17.4375 C0.27038893 14.12648313 -2.07052918 12.09895995 -3.25 6.4375 C-3.4375 3.625 -3.4375 3.625 -3.25 1.4375 C-2.25 0.4375 -2.25 0.4375 0 0 Z " fill="#38659B" transform="translate(488.25,436.5625)"/>
<path d="M0 0 C3.3 0.66 6.6 1.32 10 2 C10 2.66 10 3.32 10 4 C-10.61206897 15.87068966 -10.61206897 15.87068966 -17 18 C-17.66 17.67 -18.32 17.34 -19 17 C-18.13117187 16.35933594 -17.26234375 15.71867188 -16.3671875 15.05859375 C-10.22963732 10.47297586 -4.6763235 6.14602517 0 0 Z " fill="#386EA7" transform="translate(615,593)"/>
<path d="M0 0 C0.66 1.32 1.32 2.64 2 4 C2.99 4 3.98 4 5 4 C5.05395478 5.62463842 5.09277195 7.24978541 5.125 8.875 C5.14820313 9.77992188 5.17140625 10.68484375 5.1953125 11.6171875 C5 14 5 14 3 16 C2.01 16 1.02 16 0 16 C-1.68798827 17.43750191 -1.68798827 17.43750191 -3 19 C-5.63476168 17.68261916 -7.10432698 15.8192648 -9.0625 13.625 C-9.61035156 13.01914062 -10.15820312 12.41328125 -10.72265625 11.7890625 C-12 10 -12 10 -12 7 C-11.34 7 -10.68 7 -10 7 C-9.3503125 7.9590625 -9.3503125 7.9590625 -8.6875 8.9375 C-6.59150148 11.49927596 -5.21700528 11.65221564 -2 12 C-2.33 8.7 -2.66 5.4 -3 2 C-2.34 2 -1.68 2 -1 2 C-0.67 1.34 -0.34 0.68 0 0 Z " fill="#3C6697" transform="translate(556,412)"/>
<path d="M0 0 C3.9917805 0.46962124 5.39964139 1.51179386 8.1875 4.375 C11.60999563 9.33171781 11.99980212 14.50954574 11.1875 20.375 C9.1875 22.375 9.1875 22.375 6.375 22.8125 C2.08730406 22.22399271 0.86897234 20.70872237 -1.8125 17.375 C-4.9571202 12.60385212 -5.67567275 7.98001785 -4.8125 2.375 C-2.8125 0.375 -2.8125 0.375 0 0 Z M-2.8125 4.375 C-2.95034618 9.05192383 -2.45171353 13.14221767 0.5 16.875 C3.4180789 19.73261301 3.4180789 19.73261301 7.1875 20.375 C9.38171892 18.61409989 9.38171892 18.61409989 9.33984375 16.421875 C8.78837634 10.52618705 7.67484877 7.35242277 3.1875 3.375 C-0.12079884 2.74218438 -0.12079884 2.74218438 -2.8125 4.375 Z " fill="#E5ECF1" transform="translate(487.8125,433.625)"/>
<path d="M0 0 C2.86708654 0.68810077 5.43173466 1.5617947 8.125 2.75 C5.20791076 4.73362069 4.00119096 4.7376191 0.375 4.375 C-0.6975 4.16875 -1.77 3.9625 -2.875 3.75 C-3.81242541 6.56227622 -4.00970844 8.33746844 -4 11.25 C-4.00257813 12.0234375 -4.00515625 12.796875 -4.0078125 13.59375 C-3.95645813 15.93447017 -3.95645813 15.93447017 -2.875 18.75 C0.59441546 18.29177532 3.79895049 17.85868317 7.125 16.75 C7.785 17.41 8.445 18.07 9.125 18.75 C5.05607848 21.70921565 2.13301645 22.47843876 -2.875 21.75 C-6.68953905 18.03584356 -7.8098803 15.11751362 -8.0625 9.8125 C-8.01586789 6.63568777 -7.80144487 4.38618772 -5.875 1.75 C-2.875 -0.25 -2.875 -0.25 0 0 Z " fill="#3A628A" transform="translate(594.875,469.25)"/>
<path d="M0 0 C1.74784467 -0.13560864 3.49873926 -0.23227209 5.25 -0.3125 C6.22453125 -0.37050781 7.1990625 -0.42851562 8.203125 -0.48828125 C11 0 11 0 13.32421875 2.04296875 C15.43596269 5.76928614 15.56670813 8.35795453 15.5625 12.625 C15.58441406 13.93726563 15.60632813 15.24953125 15.62890625 16.6015625 C15 20 15 20 12.46484375 21.9609375 C11.24474609 22.47527344 11.24474609 22.47527344 10 23 C10 21.35 10 19.7 10 18 C10.66 18 11.32 18 12 18 C11.71861942 15.70704764 11.4245814 13.41564544 11.125 11.125 C10.96257813 9.84882813 10.80015625 8.57265625 10.6328125 7.2578125 C10.30122527 3.92835773 10.30122527 3.92835773 8 2 C4.85200564 1.58579022 3.50216771 1.61956991 0.9375 3.5625 C-1 5 -1 5 -3.25 4.6875 C-3.8275 4.460625 -4.405 4.23375 -5 4 C-4.34 3.34 -3.68 2.68 -3 2 C-2.34 2.33 -1.68 2.66 -1 3 C-0.67 2.01 -0.34 1.02 0 0 Z " fill="#28507C" transform="translate(533,475)"/>
<path d="M0 0 C0.66 0.66 1.32 1.32 2 2 C1.01 2.33 0.02 2.66 -1 3 C-1.33 3.66 -1.66 4.32 -2 5 C-2.886875 4.95875 -3.77375 4.9175 -4.6875 4.875 C-7.97277013 4.99897246 -10.05449295 5.61387904 -13 7 C-13.33 9.31 -13.66 11.62 -14 14 C-14.33 14 -14.66 14 -15 14 C-15.12375 12.88625 -15.2475 11.7725 -15.375 10.625 C-15.6465813 6.96896323 -15.6465813 6.96896323 -18 5 C-20.06874034 4.3574765 -20.06874034 4.3574765 -22 4 C-7.09973549 -2.04800062 -7.09973549 -2.04800062 0 0 Z " fill="#486F9D" transform="translate(493,430)"/>
<path d="M0 0 C0.80566406 0.00322266 1.61132812 0.00644531 2.44140625 0.00976562 C3.70404297 0.02233398 3.70404297 0.02233398 4.9921875 0.03515625 C6.26642578 0.04192383 6.26642578 0.04192383 7.56640625 0.04882812 C9.66669659 0.06062751 11.7669508 0.07856319 13.8671875 0.09765625 C9.75027929 2.84226173 5.85153488 2.82060431 0.99609375 3.33984375 C-2.61408196 4.21421839 -3.86763816 5.20326682 -6.1328125 8.09765625 C-7.13766133 10.42890554 -8.13803497 12.76209162 -9.1328125 15.09765625 C-10.1228125 15.75765625 -11.1128125 16.41765625 -12.1328125 17.09765625 C-11.96096418 10.20810077 -10.62867108 6.36110044 -6.1328125 1.09765625 C-3.8362755 -0.05061225 -2.54968083 -0.0179555 0 0 Z " fill="#35608C" transform="translate(514.1328125,458.90234375)"/>
<path d="M0 0 C1.32 0.33 2.64 0.66 4 1 C4 5.29 4 9.58 4 14 C6.31 14 8.62 14 11 14 C10.67 14.99 10.34 15.98 10 17 C9.071875 17.12375 9.071875 17.12375 8.125 17.25 C5.54178709 17.88306522 5.54178709 17.88306522 4.25 21.5625 C3.8375 22.696875 3.425 23.83125 3 25 C2.67 25 2.34 25 2 25 C2 17.41 2 9.82 2 2 C1.34 2 0.68 2 0 2 C0 1.34 0 0.68 0 0 Z " fill="#244870" transform="translate(602,485)"/>
<path d="M0 0 C0.33 0 0.66 0 1 0 C1.3542772 13.70416878 1.02191845 26.59923069 -2 40 C-2.33 40 -2.66 40 -3 40 C-3.09764874 35.21521178 -2.77112541 30.72314313 -2 26 C-2.33 26 -2.66 26 -3 26 C-2.85962479 24.18706911 -2.71255111 22.3746557 -2.5625 20.5625 C-2.48128906 19.55316406 -2.40007813 18.54382813 -2.31640625 17.50390625 C-2 15 -2 15 -1 14 C-0.76472227 11.65012738 -0.58613583 9.29443961 -0.4375 6.9375 C-0.35371094 5.64714844 -0.26992188 4.35679687 -0.18359375 3.02734375 C-0.12300781 2.02832031 -0.06242188 1.02929688 0 0 Z " fill="#4E7297" transform="translate(668,502)"/>
<path d="M0 0 C2.00720923 0.28674418 4.0085944 0.61866701 6 1 C6.625 3.875 6.625 3.875 7 7 C5 9 5 9 2.5 9.25 C0 9 0 9 -2 7 C-1.43181818 1.43181818 -1.43181818 1.43181818 0 0 Z " fill="#D2D2D2" transform="translate(354,499)"/>
<path d="M0 0 C0.99 0.495 0.99 0.495 2 1 C1.67 1.66 1.34 2.32 1 3 C1.66 3 2.32 3 3 3 C3.89604368 9.04829486 4.11269443 14.8894576 4 21 C2.68 21 1.36 21 0 21 C0 14.07 0 7.14 0 0 Z " fill="#264C74" transform="translate(522,498)"/>
<path d="M0 0 C3.125 0.375 3.125 0.375 6 1 C6.6875 3.3125 6.6875 3.3125 7 6 C5.875 7.875 5.875 7.875 4 9 C-0.42105263 8.57894737 -0.42105263 8.57894737 -2 7 C-2.1875 4.5625 -2.1875 4.5625 -2 2 C-1.34 1.34 -0.68 0.68 0 0 Z " fill="#C7C9CB" transform="translate(341,510)"/>
<path d="M0 0 C2.31 0.33 4.62 0.66 7 1 C6.9375 3.3125 6.9375 3.3125 6 6 C1.9498888 8.25871586 -1.35593314 9.4221879 -6 9 C-5.34 7.35 -4.68 5.7 -4 4 C-3.01 4 -2.02 4 -1 4 C-0.67 2.68 -0.34 1.36 0 0 Z " fill="#345D94" transform="translate(352,465)"/>
<path d="M0 0 C0.99 0.33 1.98 0.66 3 1 C4.35384615 8.38461538 4.35384615 8.38461538 2.5625 11.5 C2.046875 11.995 1.53125 12.49 1 13 C-5.47135061 12.51159618 -5.47135061 12.51159618 -7.9375 10.125 C-9 8 -9 8 -9 5 C-8.34 5 -7.68 5 -7 5 C-6.3503125 5.9590625 -6.3503125 5.9590625 -5.6875 6.9375 C-3.59150148 9.49927596 -2.21700528 9.65221564 1 10 C0.67 6.7 0.34 3.4 0 0 Z " fill="#D3DEE7" transform="translate(553,414)"/>
<path d="M0 0 C3.75413856 3.52442729 6.52437959 7.02137075 9.25 11.4375 C10.27867187 13.07525391 10.27867187 13.07525391 11.328125 14.74609375 C12.97249448 17.94646707 13.63532326 20.4444018 14 24 C10.40319787 20.78223308 8.16372983 17.12770309 5.875 12.9375 C3.07247413 7.88883596 3.07247413 7.88883596 0 3 C0 2.01 0 1.02 0 0 Z " fill="#224468" transform="translate(619,433)"/>
<path d="M0 0 C1.9510914 2.6014552 2.92406146 4.45577377 3.375 7.6875 C3.25125 8.450625 3.1275 9.21375 3 10 C2.01 10.66 1.02 11.32 0 12 C0.06510417 9.98177083 0.13020833 7.96354167 0.1953125 5.9453125 C0.18331689 3.76136355 0.18331689 3.76136355 -2 2 C-5.78534698 0.54409732 -10.00775578 0.52567395 -14 1 C-16.9254644 2.3509288 -16.9254644 2.3509288 -19 4 C-19 1 -19 1 -18 -1 C-12.43087711 -2.97614038 -5.48999379 -1.82999793 0 0 Z " fill="#2A5380" transform="translate(581,527)"/>
<path d="M0 0 C2.5 -0.3125 2.5 -0.3125 5 0 C5.66 0.66 6.32 1.32 7 2 C6.63318342 4.93453261 6.13562754 5.86437246 4 8 C1.375 7.625 1.375 7.625 -1 7 C-1.625 5.1875 -1.625 5.1875 -2 3 C-1.34 2.01 -0.68 1.02 0 0 Z " fill="#D0D2D2" transform="translate(329,521)"/>
<path d="M0 0 C2.25 0.25 2.25 0.25 4 1 C4.6875 3.3125 4.6875 3.3125 5 6 C3.8125 7.875 3.8125 7.875 2 9 C-0.0625 8.9375 -0.0625 8.9375 -2 8 C-3.25 5.9375 -3.25 5.9375 -4 4 C-2.25 1.9375 -2.25 1.9375 0 0 Z " fill="#C9CACC" transform="translate(319,531)"/>
<path d="M0 0 C0.33 0 0.66 0 1 0 C2 3 3 6 4 9 C2.5625 11.6875 2.5625 11.6875 1 14 C0.34 13.34 -0.32 12.68 -1 12 C-3.97 14.475 -3.97 14.475 -7 17 C-7.66 16.67 -8.32 16.34 -9 16 C-8.27683594 15.27296875 -8.27683594 15.27296875 -7.5390625 14.53125 C-3.07935095 9.79849488 -1.03372751 6.4320823 0 0 Z " fill="#3F6CA1" transform="translate(618,358)"/>
<path d="M0 0 C0.33 0 0.66 0 1 0 C1.144375 1.093125 1.28875 2.18625 1.4375 3.3125 C1.88288104 6.93122987 1.88288104 6.93122987 3 10 C6.46941546 9.54177532 9.67395049 9.10868317 13 8 C13.66 8.66 14.32 9.32 15 10 C10.93107848 12.95921565 8.00801645 13.72843876 3 13 C0.5 11 0.5 11 -1 8 C-1.02092871 5.16939262 -0.57004638 2.80272805 0 0 Z " fill="#345B86" transform="translate(589,478)"/>
<path d="M0 0 C3.94897712 1.46447306 7.48782988 3.31809636 11.125 5.4375 C12.15882813 6.03433594 13.19265625 6.63117188 14.2578125 7.24609375 C16.52587844 8.69675131 18.22782476 10.00171964 20 12 C15.99503795 12.68169567 14.05848682 12.74591353 10.671875 10.359375 C8.3716461 8.30287896 6.16755089 6.19559684 4 4 C3.25105469 3.25234375 2.50210938 2.5046875 1.73046875 1.734375 C1.15941406 1.16203125 0.58835937 0.5896875 0 0 Z " fill="#3C75AC" transform="translate(599,414)"/>
<path d="M0 0 C0.99 0.495 0.99 0.495 2 1 C2 1.66 2 2.32 2 3 C2.598125 2.79375 3.19625 2.5875 3.8125 2.375 C6 2 6 2 9 4 C8.34 4 7.68 4 7 4 C7 4.66 7 5.32 7 6 C9.31 6 11.62 6 14 6 C14 6.66 14 7.32 14 8 C12.41753293 8.08153933 10.83383727 8.13943557 9.25 8.1875 C8.36828125 8.22230469 7.4865625 8.25710938 6.578125 8.29296875 C3.50798579 7.94408929 2.19018614 7.14962714 0 5 C-0.25 2.3125 -0.25 2.3125 0 0 Z " fill="#456F9D" transform="translate(512,437)"/>
<path d="M0 0 C2 1 2 1 2.7019043 2.70239258 C3.37401133 5.0699285 4.04180548 7.43759509 4.6875 9.8125 C4.92533203 10.63298828 5.16316406 11.45347656 5.40820312 12.29882812 C5.62798828 13.09353516 5.84777344 13.88824219 6.07421875 14.70703125 C6.27619873 15.4338208 6.47817871 16.16061035 6.6862793 16.90942383 C7.03518436 19.23446201 6.7154324 20.77918512 6 23 C2.29431592 15.55265432 0 8.37293753 0 0 Z " fill="#3F678E" transform="translate(580,490)"/>
<path d="M0 0 C0.66 0.99 1.32 1.98 2 3 C0.92892883 3.86949317 -0.15745944 4.72014205 -1.25 5.5625 C-1.85328125 6.03816406 -2.4565625 6.51382812 -3.078125 7.00390625 C-5 8 -5 8 -7.234375 7.65234375 C-7.81703125 7.43707031 -8.3996875 7.22179687 -9 7 C-8.4375 4.625 -8.4375 4.625 -7 2 C-3.375 0.6875 -3.375 0.6875 0 0 Z " fill="#366195" transform="translate(475,434)"/>
<path d="M0 0 C3.69230769 0.69230769 3.69230769 0.69230769 5 2 C5.04063832 3.66617115 5.042721 5.33388095 5 7 C3.35 7.33 1.7 7.66 0 8 C-2 5 -2 5 -1.6875 2.875 C-1 1 -1 1 0 0 Z " fill="#4371A2" transform="translate(545,375)"/>
<path d="M0 0 C2.0625 0.4375 2.0625 0.4375 4 1 C4.625 2.8125 4.625 2.8125 5 5 C4.01 6.485 4.01 6.485 3 8 C1.35 7.67 -0.3 7.34 -2 7 C-1.125 1.125 -1.125 1.125 0 0 Z " fill="#C9CBCD" transform="translate(308,544)"/>
<path d="M0 0 C0.66 0 1.32 0 2 0 C1.67 1.65 1.34 3.3 1 5 C-1.64 5 -4.28 5 -7 5 C-7.33 6.32 -7.66 7.64 -8 9 C-8.66 9 -9.32 9 -10 9 C-10.1875 6.125 -10.1875 6.125 -10 3 C-6.3558226 0.5705484 -4.28758728 0.83820425 0 1 C0 0.67 0 0.34 0 0 Z " fill="#39618D" transform="translate(589,434)"/>
<path d="M0 0 C-1 2 -1 2 -4.2734375 3.10546875 C-5.63834333 3.47468644 -7.00568395 3.8349902 -8.375 4.1875 C-9.40367187 4.47270508 -9.40367187 4.47270508 -10.453125 4.76367188 C-13.82345045 5.65215261 -15.62733855 6.12422048 -19 5 C-16.67309553 3.98197929 -14.34155947 2.98336679 -12 2 C-11.30519531 1.70222656 -10.61039062 1.40445312 -9.89453125 1.09765625 C-9.20746094 0.81792969 -8.52039063 0.53820312 -7.8125 0.25 C-7.17957031 -0.01296875 -6.54664063 -0.2759375 -5.89453125 -0.546875 C-3.61447303 -1.09220851 -2.20288622 -0.72289836 0 0 Z " fill="#DEE6ED" transform="translate(345,477)"/>
<path d="M0 0 C1.65 0 3.3 0 5 0 C4.04735876 4.19162145 3.36739592 5.7207791 -0.125 8.375 C-1.07375 8.91125 -2.0225 9.4475 -3 10 C-3 6.13304322 -1.58090029 3.4911548 0 0 Z " fill="#2F5D96" transform="translate(456,445)"/>
<path d="M0 0 C1.65 0 3.3 0 5 0 C5.33 1.98 5.66 3.96 6 6 C4.35 6.33 2.7 6.66 1 7 C-1 4 -1 4 -0.625 1.8125 C-0.41875 1.214375 -0.2125 0.61625 0 0 Z " fill="#406EA1" transform="translate(533,382)"/>
<path d="M0 0 C0.33 0 0.66 0 1 0 C1 1.65 1 3.3 1 5 C1.66 5.33 2.32 5.66 3 6 C2.01 6.66 1.02 7.32 0 8 C-1.21418833 9.9466071 -1.21418833 9.9466071 -2.1875 12.125 C-2.53167969 12.84945312 -2.87585938 13.57390625 -3.23046875 14.3203125 C-3.48441406 14.87460937 -3.73835938 15.42890625 -4 16 C-5.20655614 12.51799235 -4.78332187 10.35462394 -3.6875 6.875 C-3.42324219 6.00617187 -3.15898437 5.13734375 -2.88671875 4.2421875 C-2 2 -2 2 0 0 Z " fill="#36597E" transform="translate(492,515)"/>
<path d="M0 0 C0.94875 0.04125 1.8975 0.0825 2.875 0.125 C3.205 1.115 3.535 2.105 3.875 3.125 C1.895 3.455 -0.085 3.785 -2.125 4.125 C-2.455 6.435 -2.785 8.745 -3.125 11.125 C-3.785 11.125 -4.445 11.125 -5.125 11.125 C-5.17899736 9.66707116 -5.21779177 8.20857288 -5.25 6.75 C-5.28480469 5.53183594 -5.28480469 5.53183594 -5.3203125 4.2890625 C-4.98150185 0.53504049 -3.58663539 0.14346542 0 0 Z " fill="#F3F6F8" transform="translate(488.125,433.875)"/>
<path d="M0 0 C3.69230769 0.69230769 3.69230769 0.69230769 5 2 C5.04063832 3.66617115 5.042721 5.33388095 5 7 C3.125 7.625 3.125 7.625 1 8 C-1 6 -1 6 -1.1875 3.4375 C-1 1 -1 1 0 0 Z " fill="#396497" transform="translate(490,406)"/>
<path d="M0 0 C0.66 0 1.32 0 2 0 C3.625 2 3.625 2 5 4 C8.37462715 3.45276317 10.08235 2.9451 13 1 C12.42655063 3.86724686 12.1385485 4.8614515 10 7 C6.64632925 7.36452943 4.63132112 7.33227427 1.625 5.75 C0 4 0 4 0 0 Z " fill="#3A6086" transform="translate(581,448)"/>
<path d="M0 0 C3.875 0.875 3.875 0.875 5 2 C5.04063832 3.66617115 5.042721 5.33388095 5 7 C3.68 7.33 2.36 7.66 1 8 C-1 5 -1 5 -0.625 2.3125 C-0.41875 1.549375 -0.2125 0.78625 0 0 Z " fill="#406C9A" transform="translate(479,412)"/>
<path d="M0 0 C1.66611905 -0.042721 3.33382885 -0.04063832 5 0 C6 1 6 1 6.0625 3.5625 C6.041875 4.366875 6.02125 5.17125 6 6 C4.35 6.33 2.7 6.66 1 7 C0.67 4.69 0.34 2.38 0 0 Z " fill="#3D6C9F" transform="translate(522,388)"/>
<path d="M0 0 C1.02328619 3.19411474 0.96256253 5.4215884 0.25 8.6875 C0.09015625 9.47511719 -0.0696875 10.26273437 -0.234375 11.07421875 C-0.61335938 12.02748047 -0.61335938 12.02748047 -1 13 C-1.99 13.33 -2.98 13.66 -4 14 C-4.38338879 8.76035318 -3.26296201 5.61644249 -1 1 C-0.67 0.67 -0.34 0.34 0 0 Z " fill="#325A82" transform="translate(496,500)"/>
<path d="M0 0 C0.66 0 1.32 0 2 0 C2.10832169 2.08218362 2.18573541 4.16599129 2.25 6.25 C2.29640625 7.41015625 2.3428125 8.5703125 2.390625 9.765625 C1.93035506 13.57666013 0.94851556 14.65511755 -2 17 C-2 15.35 -2 13.7 -2 12 C-1.34 12 -0.68 12 0 12 C0 8.04 0 4.08 0 0 Z " fill="#244A73" transform="translate(545,481)"/>
<path d="M0 0 C2.475 0.99 2.475 0.99 5 2 C4.34 3.98 3.68 5.96 3 8 C0.525 7.01 0.525 7.01 -2 6 C-1.125 1.125 -1.125 1.125 0 0 Z " fill="#C5C7CA" transform="translate(300,557)"/>
<path d="M0 0 C5.94 0 11.88 0 18 0 C14.27933528 2.48044315 11.13459526 2.44381173 6.8125 2.625 C6.06291016 2.66367187 5.31332031 2.70234375 4.54101562 2.7421875 C2.69440801 2.83628216 0.8472381 2.91922319 -1 3 C-0.67 2.01 -0.34 1.02 0 0 Z " fill="#244B71" transform="translate(510,459)"/>
<path d="M0 0 C5.94 0 11.88 0 18 0 C15 3 15 3 12.44140625 3.36328125 C11.01634766 3.33814453 11.01634766 3.33814453 9.5625 3.3125 C8.61503906 3.30863281 7.66757812 3.30476563 6.69140625 3.30078125 C3.99410823 2.99934156 2.31514072 2.37375963 0 1 C0 0.67 0 0.34 0 0 Z " fill="#264B71" transform="translate(540,458)"/>
<path d="M0 0 C1.65 1.65 3.3 3.3 5 5 C4.01 6.485 4.01 6.485 3 8 C1.125 7.8125 1.125 7.8125 -1 7 C-2.25 4.4375 -2.25 4.4375 -3 2 C-2.01 1.34 -1.02 0.68 0 0 Z " fill="#325D93" transform="translate(325,431)"/>
<path d="M0 0 C3.69230769 0.69230769 3.69230769 0.69230769 5 2 C5.04063832 3.66617115 5.042721 5.33388095 5 7 C3.35 7 1.7 7 0 7 C-0.38133299 5.0085944 -0.71325582 3.00720923 -1 1 C-0.67 0.67 -0.34 0.34 0 0 Z " fill="#366297" transform="translate(501,400)"/>
<path d="M0 0 C1.32 0 2.64 0 4 0 C4.33 1.98 4.66 3.96 5 6 C3.35 6.33 1.7 6.66 0 7 C-0.38133299 5.0085944 -0.71325582 3.00720923 -1 1 C-0.67 0.67 -0.34 0.34 0 0 Z " fill="#366296" transform="translate(512,394)"/>
<path d="M0 0 C2.31 0 4.62 0 7 0 C7 1.65 7 3.3 7 5 C4.69 5 2.38 5 0 5 C0 3.35 0 1.7 0 0 Z " fill="#CDCECE" transform="translate(377,617)"/>
<path d="M0 0 C2.31 0 4.62 0 7 0 C7 1.65 7 3.3 7 5 C4.69 5 2.38 5 0 5 C0 3.35 0 1.7 0 0 Z " fill="#C7CACA" transform="translate(348,618)"/>
<path d="M0 0 C2.31 0 4.62 0 7 0 C7 1.65 7 3.3 7 5 C4.69 5 2.38 5 0 5 C0 3.35 0 1.7 0 0 Z " fill="#C9CCCB" transform="translate(334,617)"/>
<path d="M0 0 C2.31 0 4.62 0 7 0 C7 1.65 7 3.3 7 5 C4.69 5 2.38 5 0 5 C0 3.35 0 1.7 0 0 Z " fill="#C9CBCA" transform="translate(391,616)"/>
<path d="M0 0 C2.31 0 4.62 0 7 0 C7 1.65 7 3.3 7 5 C4.69 5 2.38 5 0 5 C0 3.35 0 1.7 0 0 Z " fill="#CFD2D2" transform="translate(433,611)"/>
<path d="M0 0 C0.33 0 0.66 0 1 0 C1.1799928 5.21979128 0.97094808 9.07262981 -1 14 C-1.66 14 -2.32 14 -3 14 C-2.88512252 12.41590006 -2.75765492 10.83271037 -2.625 9.25 C-2.55539062 8.36828125 -2.48578125 7.4865625 -2.4140625 6.578125 C-2.00149945 4.00933618 -1.28839043 2.24158985 0 0 Z " fill="#264B73" transform="translate(598,549)"/>
<path d="M0 0 C4.62 0 9.24 0 14 0 C14.33 2.64 14.66 5.28 15 8 C14.01 7.34 13.02 6.68 12 6 C12 4.68 12 3.36 12 2 C8.37 2 4.74 2 1 2 C0.67 1.34 0.34 0.68 0 0 Z " fill="#274C73" transform="translate(558,457)"/>
<path d="M0 0 C1.2065625 0.0309375 1.2065625 0.0309375 2.4375 0.0625 C2.1075 2.0425 1.7775 4.0225 1.4375 6.0625 C-0.2125 6.0625 -1.8625 6.0625 -3.5625 6.0625 C-3.605221 4.39638095 -3.60313832 2.72867115 -3.5625 1.0625 C-2.5625 0.0625 -2.5625 0.0625 0 0 Z " fill="#C7CACC" transform="translate(296.5625,570.9375)"/>
<path d="M0 0 C0.2475 0.556875 0.495 1.11375 0.75 1.6875 C2.56239774 5.04043581 4.53114492 8.26557246 8 10 C7.67 10.99 7.34 11.98 7 13 C3.00646311 10.94926484 0.78872558 9.17369302 -1 5 C-0.6875 2.1875 -0.6875 2.1875 0 0 Z " fill="#DCE5ED" transform="translate(485,443)"/>
<path d="M0 0 C1.98 0 3.96 0 6 0 C5.67 1.98 5.34 3.96 5 6 C4.01 6.33 3.02 6.66 2 7 C1.34 6.67 0.68 6.34 0 6 C0 4.02 0 2.04 0 0 Z " fill="#29568E" transform="translate(490,457)"/>
<path d="M0 0 C1.65 1.65 3.3 3.3 5 5 C4.67 5.99 4.34 6.98 4 8 C2.125 7.8125 2.125 7.8125 0 7 C-1.25 4.4375 -1.25 4.4375 -2 2 C-1.34 1.34 -0.68 0.68 0 0 Z " fill="#2F5C90" transform="translate(484,449)"/>
<path d="M0 0 C-4.95 1.65 -9.9 3.3 -15 5 C-15.33 4.01 -15.66 3.02 -16 2 C-14.09021367 1.2733203 -12.17181485 0.56924412 -10.25 -0.125 C-9.18265625 -0.51945312 -8.1153125 -0.91390625 -7.015625 -1.3203125 C-4 -2 -4 -2 0 0 Z " fill="#CFDBE5" transform="translate(485,430)"/>
<path d="M0 0 C0.66 0 1.32 0 2 0 C2.598125 0.804375 3.19625 1.60875 3.8125 2.4375 C6.2536288 5.29710802 7.34382438 5.6953187 11 6 C10.67 6.66 10.34 7.32 10 8 C3.52864939 7.51159618 3.52864939 7.51159618 1.0625 5.125 C0 3 0 3 0 0 Z " fill="#E6EEF3" transform="translate(544,419)"/>
<path d="M0 0 C1.98 0 3.96 0 6 0 C6 1.65 6 3.3 6 5 C4.02 5 2.04 5 0 5 C0 3.35 0 1.7 0 0 Z " fill="#CACCCB" transform="translate(363,618)"/>
<path d="M0 0 C1.98 0 3.96 0 6 0 C6 1.65 6 3.3 6 5 C4.02 5 2.04 5 0 5 C0 3.35 0 1.7 0 0 Z " fill="#C9CCCB" transform="translate(420,613)"/>
<path d="M0 0 C4.875 1.75 4.875 1.75 6 4 C5.67 4.66 5.34 5.32 5 6 C2.03 5.505 2.03 5.505 -1 5 C-0.67 3.35 -0.34 1.7 0 0 Z " fill="#C0C4C4" transform="translate(308,608)"/>
<path d="M0 0 C1.65 0 3.3 0 5 0 C5 1.98 5 3.96 5 6 C3.35 6 1.7 6 0 6 C0 4.02 0 2.04 0 0 Z " fill="#C7CACA" transform="translate(292,585)"/>
<path d="M0 0 C1.485 0.99 1.485 0.99 3 2 C3.6875 5.625 3.6875 5.625 4 9 C6.97 9.495 6.97 9.495 10 10 C10 10.33 10 10.66 10 11 C7.36 11.33 4.72 11.66 2 12 C0.86235649 7.73383684 0 4.43513689 0 0 Z " fill="#325A84" transform="translate(565,575)"/>
<path d="M0 0 C0.66 1.65 1.32 3.3 2 5 C0.02 5.99 0.02 5.99 -2 7 C-2.99 5.35 -3.98 3.7 -5 2 C-2 0 -2 0 0 0 Z " fill="#C2C6C5" transform="translate(301,598)"/>
<path d="M0 0 C2.81169728 1.3179831 3.61334879 3.23353014 5 5.9375 C1.48283697 5.9375 0.62878252 5.11304415 -2 2.9375 C-2.33 3.5975 -2.66 4.2575 -3 4.9375 C-3.66 3.9475 -4.32 2.9575 -5 1.9375 C-2 -0.0625 -2 -0.0625 0 0 Z " fill="#406B9F" transform="translate(335,442.0625)"/>
<path d="M0 0 C2.475 0.495 2.475 0.495 5 1 C5.12375 1.804375 5.2475 2.60875 5.375 3.4375 C5.684375 4.7059375 5.684375 4.7059375 6 6 C6.66 6.33 7.32 6.66 8 7 C7.01 7 6.02 7 5 7 C4.67 6.01 4.34 5.02 4 4 C2.02 4.99 2.02 4.99 0 6 C0 4.02 0 2.04 0 0 Z " fill="#416C9C" transform="translate(468,419)"/>
<path d="M0 0 C1.65 0.33 3.3 0.66 5 1 C5.33 2.32 5.66 3.64 6 5 C3.69 5 1.38 5 -1 5 C-0.67 3.35 -0.34 1.7 0 0 Z " fill="#335C91" transform="translate(386,446)"/>
<path d="M0 0 C2.97 0.495 2.97 0.495 6 1 C5.67 2.32 5.34 3.64 5 5 C3.02 5 1.04 5 -1 5 C-0.67 3.35 -0.34 1.7 0 0 Z " fill="#C4C7C7" transform="translate(321,614)"/>
<path d="M0 0 C0.33 0.66 0.66 1.32 1 2 C1.66 2 2.32 2 3 2 C2.54738642 3.43931117 2.08767021 4.87638999 1.625 6.3125 C1.36976563 7.11300781 1.11453125 7.91351562 0.8515625 8.73828125 C0 11 0 11 -2 14 C-2.14034877 9.08779315 -1.22637602 4.73030752 0 0 Z " fill="#385E89" transform="translate(660,547)"/>
<path d="M0 0 C2.35845966 2.35845966 2.61736865 3.71719762 3.3125 6.9375 C3.61607422 8.25041016 3.61607422 8.25041016 3.92578125 9.58984375 C3.95027344 10.38519531 3.97476562 11.18054688 4 12 C3.01 12.99 2.02 13.98 1 15 C0.67 10.05 0.34 5.1 0 0 Z " fill="#1A3F67" transform="translate(507,531)"/>
<path d="M0 0 C2.10827055 3.16240582 2.33817465 4.50657469 2.625 8.1875 C2.69976563 9.08855469 2.77453125 9.98960937 2.8515625 10.91796875 C2.90054688 11.60503906 2.94953125 12.29210937 3 13 C2.34 13 1.68 13 1 13 C0.87625 12.360625 0.7525 11.72125 0.625 11.0625 C0.41875 10.381875 0.2125 9.70125 0 9 C-0.66 8.67 -1.32 8.34 -2 8 C-2 7.34 -2 6.68 -2 6 C-1.34 6 -0.68 6 0 6 C0 4.02 0 2.04 0 0 Z " fill="#456A8C" transform="translate(572,458)"/>
<path d="M0 0 C0.66 0.33 1.32 0.66 2 1 C2 1.66 2 2.32 2 3 C-2.95 4.485 -2.95 4.485 -8 6 C-8 5.34 -8 4.68 -8 4 C-8.99 3.67 -9.98 3.34 -11 3 C-10.37351562 2.86722656 -9.74703125 2.73445313 -9.1015625 2.59765625 C-8.28429687 2.42105469 -7.46703125 2.24445313 -6.625 2.0625 C-5.81289063 1.88847656 -5.00078125 1.71445312 -4.1640625 1.53515625 C-1.970537 1.07669307 -1.970537 1.07669307 0 0 Z " fill="#D7E0E7" transform="translate(398,448)"/>
<path d="M0 0 C2.96404505 2.80804268 5.44499019 5.18315774 7 9 C6.34 9.66 5.68 10.32 5 11 C4.15841464 9.73461631 3.32700252 8.46246221 2.5 7.1875 C1.80390625 6.12595703 1.80390625 6.12595703 1.09375 5.04296875 C0 3 0 3 0 0 Z " fill="#254973" transform="translate(619,433)"/>
<path d="M0 0 C0.33 0.99 0.66 1.98 1 3 C1.99 3.33 2.98 3.66 4 4 C3.01 4 2.02 4 1 4 C0.67 4.66 0.34 5.32 0 6 C-2.64 5.67 -5.28 5.34 -8 5 C-5.64722731 2.27573689 -3.37503669 1.1858237 0 0 Z " fill="#2D5988" transform="translate(633,455)"/>
<path d="M0 0 C1.98 0 3.96 0 6 0 C6 1.32 6 2.64 6 4 C4.02 4 2.04 4 0 4 C0 2.68 0 1.36 0 0 Z " fill="#C8CBCB" transform="translate(406,615)"/>
<path d="M0 0 C0.66 0.33 1.32 0.66 2 1 C1.01 4.3 0.02 7.6 -1 11 C-1.66 11 -2.32 11 -3 11 C-2.88590407 9.54077307 -2.75834456 8.08259402 -2.625 6.625 C-2.55539062 5.81289063 -2.48578125 5.00078125 -2.4140625 4.1640625 C-2 2 -2 2 0 0 Z " fill="#2F5B84" transform="translate(499,488)"/>
<path d="M0 0 C0.66 0 1.32 0 2 0 C1.67 3.63 1.34 7.26 1 11 C0.34 10.67 -0.32 10.34 -1 10 C-1.125 2.25 -1.125 2.25 0 0 Z " fill="#42678F" transform="translate(588,473)"/>
<path d="M0 0 C0.66 0.33 1.32 0.66 2 1 C0.84826645 3.46800047 -0.04783565 5.04783565 -2 7 C-3.32 6.67 -4.64 6.34 -6 6 C-4.02 4.02 -2.04 2.04 0 0 Z " fill="#315A90" transform="translate(557,426)"/>
<path d="M0 0 C4.75 0.875 4.75 0.875 7 2 C6.67 3.32 6.34 4.64 6 6 C3.08482708 4.92598892 1.22189824 4.22189824 -1 2 C-0.67 1.34 -0.34 0.68 0 0 Z " fill="#2F5F92" transform="translate(598,411)"/>
<path d="M0 0 C0.8125 1.6875 0.8125 1.6875 1 4 C-1.4375 6.75 -1.4375 6.75 -4 9 C-3.6875 5.625 -3.6875 5.625 -3 2 C-2.01 1.34 -1.02 0.68 0 0 Z " fill="#2A547C" transform="translate(506,467)"/>
<path d="M0 0 C0.99 0 1.98 0 3 0 C5.1519437 3.22791555 5.20086443 4.28400809 5 8 C3.68 7.67 2.36 7.34 1 7 C1.66 6.67 2.32 6.34 3 6 C3 5.01 3 4.02 3 3 C2.01 2.67 1.02 2.34 0 2 C0 1.34 0 0.68 0 0 Z " fill="#254B74" transform="translate(588,431)"/>
<path d="M0 0 C2.56616632 3.84924948 2.55097676 6.4349304 3 11 C0.55178556 9.08400609 0.00675177 8.02756971 -0.75 4.9375 C-1 2 -1 2 0 0 Z " fill="#4C6F8F" transform="translate(584,502)"/>
<path d="M0 0 C0.144375 0.598125 0.28875 1.19625 0.4375 1.8125 C0.8872439 3.56150404 1.42892341 5.28677023 2 7 C1.67 7.99 1.34 8.98 1 10 C0.01 10.33 -0.98 10.66 -2 11 C-1.125 3.375 -1.125 3.375 0 0 Z " fill="#527695" transform="translate(502,470)"/>
<path d="M0 0 C0.33 1.32 0.66 2.64 1 4 C1.66 4 2.32 4 3 4 C3.625 6.375 3.625 6.375 4 9 C3.34 9.66 2.68 10.32 2 11 C-0.32590854 7.36576791 -0.16265833 4.22911669 0 0 Z " fill="#55769A" transform="translate(578,439)"/>
<path d="M0 0 C1.39195915 4.17587745 -0.17676781 6.13474776 -2 10 C-3.01136941 7.26930259 -3.04557718 6.13998707 -2.125 3.3125 C-1 1 -1 1 0 0 Z " fill="#294F78" transform="translate(487,534)"/>
<path d="M0 0 C2 3.875 2 3.875 2 5 C-1.96 5 -5.92 5 -10 5 C-10 4.67 -10 4.34 -10 4 C-6.97265625 3.75585938 -6.97265625 3.75585938 -3.9453125 3.51171875 C-1.60480784 3.12606964 -1.60480784 3.12606964 0 0 Z " fill="#22476D" transform="translate(594,542)"/>
<path d="M0 0 C0.33 0.66 0.66 1.32 1 2 C-1.64 2.33 -4.28 2.66 -7 3 C-6.67 2.01 -6.34 1.02 -6 0 C-3 -1 -3 -1 0 0 Z " fill="#E9EEF3" transform="translate(351,475)"/>
<path d="M0 0 C0.33 0 0.66 0 1 0 C1 2.31 1 4.62 1 7 C-0.32 6.67 -1.64 6.34 -3 6 C-2.01 4.02 -1.02 2.04 0 0 Z " fill="#284C74" transform="translate(642,518)"/>
<path d="M0 0 C1.65 0.99 3.3 1.98 5 3 C4.67 3.66 4.34 4.32 4 5 C2.68 4.67 1.36 4.34 0 4 C0 2.68 0 1.36 0 0 Z " fill="#2A5991" transform="translate(451,469)"/>
<path d="M0 0 C2 0.3125 2 0.3125 4 1 C4.33 1.66 4.66 2.32 5 3 C4.071875 3.185625 4.071875 3.185625 3.125 3.375 C0.80879168 3.87197356 0.80879168 3.87197356 -1 6 C-1.042721 4.33388095 -1.04063832 2.66617115 -1 1 C-0.67 0.67 -0.34 0.34 0 0 Z " fill="#4B739E" transform="translate(490,406)"/>
</svg>
